<svg version="1.1" id="Layer_1" xmlns="http://www.w3.org/2000/svg" xmlns:xlink="http://www.w3.org/1999/xlink" x="0px" y="0px"
	 width="100%" viewBox="0 0 1500 237" enable-background="new 0 0 1500 237" xml:space="preserve">
<path fill="#000000" opacity="1.000000" stroke="none" 
	d="
M81.000000,1.000001 
	C554.276062,1.000000 1027.552124,1.000000 1500.914062,1.000000 
	C1500.914062,79.933052 1500.914062,158.866226 1500.914062,237.899704 
	C1001.000000,237.899704 501.000000,237.899704 1.044536,237.899704 
	C1.044536,158.921478 1.044536,79.960724 1.044536,1.000000 
	C24.419577,1.000000 47.750084,1.000000 71.842911,1.375218 
	C71.595360,2.166606 70.618782,2.802902 69.569969,2.961464 
	C64.597656,3.713190 59.515949,3.946433 54.637123,5.073748 
	C38.773582,8.739221 26.044352,17.478985 16.890156,30.797409 
	C9.804838,41.105820 7.468474,52.866077 7.856458,65.500229 
	C8.374253,82.361526 16.140047,95.045364 28.942230,104.914604 
	C42.429848,115.312241 58.534630,120.931915 73.852127,127.874992 
	C87.539207,134.079025 101.096817,140.165298 111.354958,151.757248 
	C117.301018,158.476425 120.667091,166.318481 120.854378,174.986862 
	C121.231865,192.458191 112.534782,204.990417 97.329102,212.839264 
	C85.776779,218.802322 73.300560,219.312576 60.665916,216.993729 
	C44.897606,214.099792 31.338375,206.634888 19.228594,196.434525 
	C15.460817,193.260834 12.704304,193.047058 9.684415,196.817551 
	C8.260112,198.595871 7.006174,200.577118 5.320945,202.065475 
	C2.259891,204.768921 2.292035,206.982391 5.250644,209.836197 
	C23.414738,227.356979 45.574909,235.016251 70.287041,235.860336 
	C77.415970,236.103867 84.685768,235.141418 91.745285,233.902008 
	C107.256966,231.178741 119.703690,223.259293 129.097336,210.521164 
	C137.209381,199.520950 139.132858,187.118820 139.159073,173.746780 
	C139.203308,151.173813 128.309036,135.403931 109.742485,124.518356 
	C99.539940,118.536606 88.429863,114.102180 77.726318,108.975655 
	C63.816647,102.313530 48.882793,97.571594 37.528316,86.251350 
	C30.205633,78.950745 25.479015,70.358734 26.246899,60.175495 
	C26.928375,51.138149 30.711479,42.680561 37.429989,36.102394 
	C53.583851,20.285973 72.798210,16.758474 94.091629,22.599916 
	C104.638222,25.493170 113.603325,31.496809 122.450264,37.722393 
	C123.640953,38.560280 126.860901,38.395737 127.748169,37.423752 
	C130.213028,34.723564 132.008804,31.392956 133.943207,28.234421 
	C135.475693,25.732162 135.701874,23.218750 132.871460,21.415848 
	C127.328461,17.885099 121.917664,14.074441 116.096191,11.069152 
	C105.762321,5.734362 94.642906,3.104417 82.962158,2.912845 
	C82.297821,2.901950 81.653587,1.665866 81.000000,1.000001 
M247.017746,155.869980 
	C247.651840,156.809311 248.313263,157.731491 248.915970,158.690536 
	C259.478516,175.497971 270.003876,192.328903 280.612183,209.107361 
	C283.238556,213.261322 285.074432,213.116943 287.479553,209.037277 
	C297.151306,192.631531 306.911591,176.277740 316.502258,159.824921 
	C317.256622,158.530807 316.958435,156.623138 318.051422,154.999908 
	C321.203461,154.999908 324.355499,154.999908 327.496216,154.999908 
	C336.835358,180.068085 346.081909,204.942780 355.433929,229.777756 
	C355.786865,230.715057 357.141357,231.868118 358.064941,231.900558 
	C363.678772,232.097809 369.303009,231.998947 376.327393,231.998947 
	C347.947357,156.042740 319.905396,80.991226 291.932220,6.123900 
	C285.353638,6.123900 279.374969,6.123900 273.235260,6.123900 
	C273.136841,6.844168 273.165375,7.507014 272.951050,8.078838 
	C262.444153,36.111084 251.899780,64.129295 241.396179,92.162773 
	C233.027618,114.497955 224.722626,136.856949 216.358261,159.193726 
	C209.341125,177.932770 202.213821,196.630890 195.278732,215.400131 
	C193.340912,220.644730 191.911621,226.077225 190.069794,231.999939 
	C196.448059,231.999939 201.290634,232.277664 206.069321,231.846741 
	C207.704605,231.699280 210.037018,230.099869 210.599228,228.614380 
	C218.871307,206.758209 226.980103,184.838913 234.939774,162.866531 
	C237.831421,154.884216 237.605560,154.800934 246.006241,155.015884 
	C246.336197,155.024323 246.664139,155.112305 247.017746,155.869980 
M1251.994751,121.508339 
	C1259.904297,116.148186 1264.959473,108.515907 1269.014526,100.095116 
	C1276.504272,84.541473 1276.668091,68.007896 1273.791260,51.666054 
	C1270.279297,31.717556 1258.204956,17.910564 1239.179932,10.702829 
	C1227.223877,6.173219 1214.527954,6.182228 1201.977051,6.055776 
	C1181.487061,5.849337 1160.993530,5.995411 1140.501465,6.009866 
	C1139.065918,6.010879 1137.630493,6.152824 1136.261230,6.225708 
	C1136.261230,81.627434 1136.261230,156.678879 1136.261230,231.736694 
	C1142.263916,231.736694 1148.001465,231.736694 1154.120972,231.736694 
	C1154.120972,199.077240 1154.120972,166.678955 1154.120972,134.184418 
	C1174.260010,134.184418 1194.010864,134.184418 1213.473389,134.184418 
	C1221.227783,148.608490 1228.873657,162.752975 1236.446045,176.936615 
	C1245.609619,194.100357 1254.667603,211.320755 1263.916138,228.438339 
	C1264.718628,229.923721 1266.542114,231.743698 1267.992920,231.837631 
	C1273.936279,232.222443 1279.918945,231.998276 1287.514893,231.998276 
	C1269.974487,197.175873 1251.068115,164.312973 1234.086914,131.443817 
	C1240.255981,128.099503 1245.859863,125.061615 1251.994751,121.508339 
M833.000000,86.500000 
	C833.000000,59.739410 833.000000,32.978821 833.000000,6.288978 
	C826.685547,6.288978 820.947266,6.288978 814.818970,6.288978 
	C814.818970,41.313740 814.818970,76.051147 814.818970,110.712624 
	C769.353577,110.712624 724.285400,110.712624 678.822266,110.712624 
	C678.822266,75.689362 678.822266,40.951817 678.822266,6.290807 
	C672.682983,6.290807 666.944031,6.290807 661.285278,6.290807 
	C661.285278,81.647514 661.285278,156.713074 661.285278,231.711014 
	C667.314453,231.711014 673.052734,231.711014 679.181030,231.711014 
	C679.181030,196.686234 679.181030,161.948822 679.181030,127.287384 
	C724.646423,127.287384 769.714600,127.287384 815.177734,127.287384 
	C815.177734,162.310654 815.177734,197.048203 815.177734,231.709183 
	C821.317017,231.709183 827.055969,231.709183 833.000000,231.709183 
	C833.000000,183.445786 833.000000,135.472885 833.000000,86.500000 
M479.500000,6.000000 
	C467.073578,6.000000 454.647186,6.000000 442.245361,6.000000 
	C442.245361,81.609093 442.245361,156.653687 442.245361,231.753448 
	C448.230804,231.753448 453.967865,231.753448 460.084229,231.753448 
	C460.084229,201.113220 460.084229,170.717041 460.084229,140.000000 
	C477.255249,140.000000 494.047455,140.212524 510.830414,139.911072 
	C519.322815,139.758530 527.932678,139.407074 536.256104,137.876633 
	C559.751526,133.556473 575.321411,119.635651 583.001099,97.024368 
	C587.608154,83.459671 587.279785,69.400276 584.782104,55.713451 
	C581.481567,37.627769 571.352722,23.890852 554.868958,14.903794 
	C542.959229,8.410537 530.151611,6.437436 516.979187,6.071782 
	C504.828186,5.734481 492.660400,6.000000 479.500000,6.000000 
M1382.000000,197.498749 
	C1382.000000,174.071472 1382.000000,150.644211 1382.000000,126.824776 
	C1411.641602,126.824776 1440.713135,126.824776 1469.710327,126.824776 
	C1469.710327,121.018349 1469.710327,115.612823 1469.710327,109.817299 
	C1440.351196,109.817299 1411.279907,109.817299 1382.290283,109.817299 
	C1382.290283,80.683083 1382.290283,51.946865 1382.290283,22.817223 
	C1417.982666,22.817223 1453.386597,22.817223 1488.707031,22.817223 
	C1488.707031,17.011694 1488.707031,11.606090 1488.707031,6.291492 
	C1447.011841,6.291492 1405.610352,6.291492 1364.285156,6.291492 
	C1364.285156,81.648155 1364.285156,156.712982 1364.285156,231.716736 
	C1407.972534,231.716736 1451.373901,231.716736 1494.713135,231.716736 
	C1494.713135,226.023911 1494.713135,220.618515 1494.713135,214.824036 
	C1457.024292,214.824036 1419.620972,214.824036 1382.000000,214.824036 
	C1382.000000,209.119263 1382.000000,203.808716 1382.000000,197.498749 
M959.968994,108.669281 
	C962.997803,113.963623 965.774536,119.423569 969.117004,124.511871 
	C973.661499,131.429993 976.406738,138.375519 976.212769,147.112213 
	C975.624634,173.598038 976.000000,200.105240 976.000000,226.604126 
	C976.000000,228.358978 976.000000,230.113846 976.000000,231.670227 
	C982.064697,231.670227 987.474304,231.670227 993.000000,231.670227 
	C993.000000,200.852509 992.971802,170.364304 993.064758,139.876450 
	C993.070801,137.898193 993.581299,135.670197 994.578064,133.984711 
	C1005.954590,114.747902 1017.470581,95.593529 1028.950806,76.418022 
	C1039.850342,58.212547 1050.975830,40.136261 1061.497070,21.714684 
	C1064.184326,17.009325 1069.400635,12.881365 1067.694580,6.000290 
	C1062.185913,6.000290 1056.860596,5.817155 1051.562256,6.114717 
	C1050.023804,6.201119 1048.027588,7.299229 1047.166992,8.563671 
	C1044.644287,12.270458 1042.634766,16.322384 1040.340088,20.189171 
	C1031.068970,35.811405 1021.769958,51.417023 1012.474426,67.024704 
	C1003.029480,82.883049 993.576477,98.736603 984.009583,114.789253 
	C982.255188,111.360992 980.545837,107.553688 978.438110,103.981407 
	C968.226807,86.674484 957.950500,69.405495 947.615417,52.172153 
	C938.845886,37.549305 929.990479,22.977631 921.079285,8.440823 
	C920.433472,7.387402 919.049072,6.155165 917.962036,6.109871 
	C912.342285,5.875707 906.707581,6.001082 900.811462,6.001082 
	C901.036011,8.299561 900.652100,10.414742 901.474487,11.828083 
	C907.859131,22.801126 914.485779,33.633160 921.018982,44.519993 
	C927.471252,55.271767 933.853455,66.065849 940.355469,76.787384 
	C946.694519,87.240257 953.146240,97.624847 959.968994,108.669281 
z"/>
<path fill="#FFFFFF" opacity="1.000000" stroke="none" 
	d="
M80.550018,1.000001 
	C81.653587,1.665866 82.297821,2.901950 82.962158,2.912845 
	C94.642906,3.104417 105.762321,5.734362 116.096191,11.069152 
	C121.917664,14.074441 127.328461,17.885099 132.871460,21.415848 
	C135.701874,23.218750 135.475693,25.732162 133.943207,28.234421 
	C132.008804,31.392956 130.213028,34.723564 127.748169,37.423752 
	C126.860901,38.395737 123.640953,38.560280 122.450264,37.722393 
	C113.603325,31.496809 104.638222,25.493170 94.091629,22.599916 
	C72.798210,16.758474 53.583851,20.285973 37.429989,36.102394 
	C30.711479,42.680561 26.928375,51.138149 26.246899,60.175495 
	C25.479015,70.358734 30.205633,78.950745 37.528316,86.251350 
	C48.882793,97.571594 63.816647,102.313530 77.726318,108.975655 
	C88.429863,114.102180 99.539940,118.536606 109.742485,124.518356 
	C128.309036,135.403931 139.203308,151.173813 139.159073,173.746780 
	C139.132858,187.118820 137.209381,199.520950 129.097336,210.521164 
	C119.703690,223.259293 107.256966,231.178741 91.745285,233.902008 
	C84.685768,235.141418 77.415970,236.103867 70.287041,235.860336 
	C45.574909,235.016251 23.414738,227.356979 5.250644,209.836197 
	C2.292035,206.982391 2.259891,204.768921 5.320945,202.065475 
	C7.006174,200.577118 8.260112,198.595871 9.684415,196.817551 
	C12.704304,193.047058 15.460817,193.260834 19.228594,196.434525 
	C31.338375,206.634888 44.897606,214.099792 60.665916,216.993729 
	C73.300560,219.312576 85.776779,218.802322 97.329102,212.839264 
	C112.534782,204.990417 121.231865,192.458191 120.854378,174.986862 
	C120.667091,166.318481 117.301018,158.476425 111.354958,151.757248 
	C101.096817,140.165298 87.539207,134.079025 73.852127,127.874992 
	C58.534630,120.931915 42.429848,115.312241 28.942230,104.914604 
	C16.140047,95.045364 8.374253,82.361526 7.856458,65.500229 
	C7.468474,52.866077 9.804838,41.105820 16.890156,30.797409 
	C26.044352,17.478985 38.773582,8.739221 54.637123,5.073748 
	C59.515949,3.946433 64.597656,3.713190 69.569969,2.961464 
	C70.618782,2.802902 71.595360,2.166606 72.302612,1.375218 
	C74.700012,1.000000 77.400032,1.000000 80.550018,1.000001 
z"/>
<path fill="#FFFFFF" opacity="1.000000" stroke="none" 
	d="
M1251.729248,121.766029 
	C1245.859863,125.061615 1240.255981,128.099503 1234.086914,131.443817 
	C1251.068115,164.312973 1269.974487,197.175873 1287.514893,231.998276 
	C1279.918945,231.998276 1273.936279,232.222443 1267.992920,231.837631 
	C1266.542114,231.743698 1264.718628,229.923721 1263.916138,228.438339 
	C1254.667603,211.320755 1245.609619,194.100357 1236.446045,176.936615 
	C1228.873657,162.752975 1221.227783,148.608490 1213.473389,134.184418 
	C1194.010864,134.184418 1174.260010,134.184418 1154.120972,134.184418 
	C1154.120972,166.678955 1154.120972,199.077240 1154.120972,231.736694 
	C1148.001465,231.736694 1142.263916,231.736694 1136.261230,231.736694 
	C1136.261230,156.678879 1136.261230,81.627434 1136.261230,6.225708 
	C1137.630493,6.152824 1139.065918,6.010879 1140.501465,6.009866 
	C1160.993530,5.995411 1181.487061,5.849337 1201.977051,6.055776 
	C1214.527954,6.182228 1227.223877,6.173219 1239.179932,10.702829 
	C1258.204956,17.910564 1270.279297,31.717556 1273.791260,51.666054 
	C1276.668091,68.007896 1276.504272,84.541473 1269.014526,100.095116 
	C1264.959473,108.515907 1259.904297,116.148186 1251.729248,121.766029 
M1154.000000,83.500000 
	C1154.000000,94.592674 1154.000000,105.685349 1154.000000,117.000000 
	C1167.862183,117.000000 1181.164551,117.120537 1194.463501,116.957245 
	C1203.202148,116.849953 1212.059814,117.130333 1220.640747,115.798454 
	C1231.453491,114.120163 1240.630493,108.749733 1247.110474,99.481117 
	C1256.037964,86.711922 1259.341431,72.544914 1255.823364,57.466938 
	C1253.014526,45.428570 1246.179688,35.702892 1235.007568,29.447979 
	C1226.555664,24.716080 1217.425049,23.081654 1207.937866,23.026602 
	C1191.449219,22.930916 1174.959717,22.994200 1158.470581,23.010204 
	C1157.037842,23.011595 1155.605347,23.156698 1154.000000,23.244493 
	C1154.000000,43.230667 1154.000000,62.865334 1154.000000,83.500000 
z"/>
<path fill="#FFFFFF" opacity="1.000000" stroke="none" 
	d="
M833.000000,87.000000 
	C833.000000,135.472885 833.000000,183.445786 833.000000,231.709183 
	C827.055969,231.709183 821.317017,231.709183 815.177734,231.709183 
	C815.177734,197.048203 815.177734,162.310654 815.177734,127.287384 
	C769.714600,127.287384 724.646423,127.287384 679.181030,127.287384 
	C679.181030,161.948822 679.181030,196.686234 679.181030,231.711014 
	C673.052734,231.711014 667.314453,231.711014 661.285278,231.711014 
	C661.285278,156.713074 661.285278,81.647514 661.285278,6.290807 
	C666.944031,6.290807 672.682983,6.290807 678.822266,6.290807 
	C678.822266,40.951817 678.822266,75.689362 678.822266,110.712624 
	C724.285400,110.712624 769.353577,110.712624 814.818970,110.712624 
	C814.818970,76.051147 814.818970,41.313740 814.818970,6.288978 
	C820.947266,6.288978 826.685547,6.288978 833.000000,6.288978 
	C833.000000,32.978821 833.000000,59.739410 833.000000,87.000000 
z"/>
<path fill="#FFFFFF" opacity="1.000000" stroke="none" 
	d="
M480.000000,6.000000 
	C492.660400,6.000000 504.828186,5.734481 516.979187,6.071782 
	C530.151611,6.437436 542.959229,8.410537 554.868958,14.903794 
	C571.352722,23.890852 581.481567,37.627769 584.782104,55.713451 
	C587.279785,69.400276 587.608154,83.459671 583.001099,97.024368 
	C575.321411,119.635651 559.751526,133.556473 536.256104,137.876633 
	C527.932678,139.407074 519.322815,139.758530 510.830414,139.911072 
	C494.047455,140.212524 477.255249,140.000000 460.084229,140.000000 
	C460.084229,170.717041 460.084229,201.113220 460.084229,231.753448 
	C453.967865,231.753448 448.230804,231.753448 442.245361,231.753448 
	C442.245361,156.653687 442.245361,81.609093 442.245361,6.000000 
	C454.647186,6.000000 467.073578,6.000000 480.000000,6.000000 
M561.551025,98.960548 
	C567.306152,87.802727 569.045288,76.193863 567.128357,63.643093 
	C563.149475,37.592075 542.176636,23.805613 518.302002,23.104445 
	C500.320496,22.576353 482.311035,22.994751 464.314026,23.010099 
	C462.894073,23.011311 461.474243,23.155727 460.352997,23.217211 
	C460.352997,56.778591 460.352997,89.847748 460.352997,123.000000 
	C473.866211,123.000000 487.028137,123.122910 500.186493,122.958130 
	C509.429840,122.842384 518.755737,123.017120 527.888916,121.846092 
	C542.427673,119.981949 553.724060,112.515244 561.551025,98.960548 
z"/>
<path fill="#FFFFFF" opacity="1.000000" stroke="none" 
	d="
M1382.000000,197.998474 
	C1382.000000,203.808716 1382.000000,209.119263 1382.000000,214.824036 
	C1419.620972,214.824036 1457.024292,214.824036 1494.713135,214.824036 
	C1494.713135,220.618515 1494.713135,226.023911 1494.713135,231.716736 
	C1451.373901,231.716736 1407.972534,231.716736 1364.285156,231.716736 
	C1364.285156,156.712982 1364.285156,81.648155 1364.285156,6.291492 
	C1405.610352,6.291492 1447.011841,6.291492 1488.707031,6.291492 
	C1488.707031,11.606090 1488.707031,17.011694 1488.707031,22.817223 
	C1453.386597,22.817223 1417.982666,22.817223 1382.290283,22.817223 
	C1382.290283,51.946865 1382.290283,80.683083 1382.290283,109.817299 
	C1411.279907,109.817299 1440.351196,109.817299 1469.710327,109.817299 
	C1469.710327,115.612823 1469.710327,121.018349 1469.710327,126.824776 
	C1440.713135,126.824776 1411.641602,126.824776 1382.000000,126.824776 
	C1382.000000,150.644211 1382.000000,174.071472 1382.000000,197.998474 
z"/>
<path fill="#FFFFFF" opacity="1.000000" stroke="none" 
	d="
M246.993011,155.163208 
	C246.664139,155.112305 246.336197,155.024323 246.006241,155.015884 
	C237.605560,154.800934 237.831421,154.884216 234.939774,162.866531 
	C226.980103,184.838913 218.871307,206.758209 210.599228,228.614380 
	C210.037018,230.099869 207.704605,231.699280 206.069321,231.846741 
	C201.290634,232.277664 196.448059,231.999939 190.069794,231.999939 
	C191.911621,226.077225 193.340912,220.644730 195.278732,215.400131 
	C202.213821,196.630890 209.341125,177.932770 216.358261,159.193726 
	C224.722626,136.856949 233.027618,114.497955 241.396179,92.162773 
	C251.899780,64.129295 262.444153,36.111084 272.951050,8.078838 
	C273.165375,7.507014 273.136841,6.844168 273.235260,6.123900 
	C279.374969,6.123900 285.353638,6.123900 291.932220,6.123900 
	C319.905396,80.991226 347.947357,156.042740 376.327393,231.998947 
	C369.303009,231.998947 363.678772,232.097809 358.064941,231.900558 
	C357.141357,231.868118 355.786865,230.715057 355.433929,229.777756 
	C346.081909,204.942780 336.835358,180.068085 327.496216,154.999908 
	C324.355499,154.999908 321.203461,154.999908 317.537170,154.642288 
	C316.628662,153.186600 316.234406,152.088516 315.915436,150.630661 
	C317.326721,147.897827 318.662720,145.524796 320.326599,143.083359 
	C321.476715,142.355667 322.298981,141.696381 323.418823,140.872131 
	C322.180054,137.788559 320.643707,134.869919 319.055237,131.601196 
	C317.948120,129.497360 316.893097,127.743629 315.913086,125.597542 
	C309.997742,108.860611 303.977692,92.526871 298.026611,76.168030 
	C293.328552,63.253632 288.702850,50.312824 284.082947,37.370216 
	C283.596802,36.008251 283.366638,34.554897 283.131500,33.604202 
	C274.631165,56.338833 266.070251,79.060318 257.657684,101.836601 
	C254.957672,109.146736 252.649506,116.601601 250.001617,124.321167 
	C248.214722,128.061661 246.588272,131.471237 244.720093,134.975937 
	C244.374222,135.371994 244.270065,135.672913 244.095032,136.304321 
	C243.970795,137.081619 243.917419,137.528427 243.642410,138.080750 
	C243.420792,138.186279 243.234161,138.640366 242.940125,138.937134 
	C243.818481,140.491608 244.990845,141.749313 246.088989,143.367096 
	C247.343246,146.100006 248.671768,148.472824 249.694489,151.008667 
	C248.590134,152.502213 247.791565,153.832703 246.993011,155.163208 
z"/>
<path fill="#FFFFFF" opacity="1.000000" stroke="none" 
	d="
M959.758789,108.354347 
	C953.146240,97.624847 946.694519,87.240257 940.355469,76.787384 
	C933.853455,66.065849 927.471252,55.271767 921.018982,44.519993 
	C914.485779,33.633160 907.859131,22.801126 901.474487,11.828083 
	C900.652100,10.414742 901.036011,8.299561 900.811462,6.001082 
	C906.707581,6.001082 912.342285,5.875707 917.962036,6.109871 
	C919.049072,6.155165 920.433472,7.387402 921.079285,8.440823 
	C929.990479,22.977631 938.845886,37.549305 947.615417,52.172153 
	C957.950500,69.405495 968.226807,86.674484 978.438110,103.981407 
	C980.545837,107.553688 982.255188,111.360992 984.009583,114.789253 
	C993.576477,98.736603 1003.029480,82.883049 1012.474426,67.024704 
	C1021.769958,51.417023 1031.068970,35.811405 1040.340088,20.189171 
	C1042.634766,16.322384 1044.644287,12.270458 1047.166992,8.563671 
	C1048.027588,7.299229 1050.023804,6.201119 1051.562256,6.114717 
	C1056.860596,5.817155 1062.185913,6.000290 1067.694580,6.000290 
	C1069.400635,12.881365 1064.184326,17.009325 1061.497070,21.714684 
	C1050.975830,40.136261 1039.850342,58.212547 1028.950806,76.418022 
	C1017.470581,95.593529 1005.954590,114.747902 994.578064,133.984711 
	C993.581299,135.670197 993.070801,137.898193 993.064758,139.876450 
	C992.971802,170.364304 993.000000,200.852509 993.000000,231.670227 
	C987.474304,231.670227 982.064697,231.670227 976.000000,231.670227 
	C976.000000,230.113846 976.000000,228.358978 976.000000,226.604126 
	C976.000000,200.105240 975.624634,173.598038 976.212769,147.112213 
	C976.406738,138.375519 973.661499,131.429993 969.117004,124.511871 
	C965.774536,119.423569 962.997803,113.963623 959.758789,108.354347 
z"/>
<path fill="#15A5D8" opacity="1.000000" stroke="none" 
	d="
M315.840149,150.990448 
	C316.234406,152.088516 316.628662,153.186600 317.086182,154.642639 
	C316.958435,156.623138 317.256622,158.530807 316.502258,159.824921 
	C306.911591,176.277740 297.151306,192.631531 287.479553,209.037277 
	C285.074432,213.116943 283.238556,213.261322 280.612183,209.107361 
	C270.003876,192.328903 259.478516,175.497971 248.915970,158.690536 
	C248.313263,157.731491 247.651840,156.809311 247.005371,155.516602 
	C247.791565,153.832703 248.590134,152.502213 250.159500,151.074936 
	C272.566925,150.982254 294.203522,150.986359 315.840149,150.990448 
z"/>
<path fill="#000000" opacity="1.000000" stroke="none" 
	d="
M1154.000000,83.000000 
	C1154.000000,62.865334 1154.000000,43.230667 1154.000000,23.244493 
	C1155.605347,23.156698 1157.037842,23.011595 1158.470581,23.010204 
	C1174.959717,22.994200 1191.449219,22.930916 1207.937866,23.026602 
	C1217.425049,23.081654 1226.555664,24.716080 1235.007568,29.447979 
	C1246.179688,35.702892 1253.014526,45.428570 1255.823364,57.466938 
	C1259.341431,72.544914 1256.037964,86.711922 1247.110474,99.481117 
	C1240.630493,108.749733 1231.453491,114.120163 1220.640747,115.798454 
	C1212.059814,117.130333 1203.202148,116.849953 1194.463501,116.957245 
	C1181.164551,117.120537 1167.862183,117.000000 1154.000000,117.000000 
	C1154.000000,105.685349 1154.000000,94.592674 1154.000000,83.000000 
z"/>
<path fill="#000000" opacity="1.000000" stroke="none" 
	d="
M561.296631,99.245499 
	C553.724060,112.515244 542.427673,119.981949 527.888916,121.846092 
	C518.755737,123.017120 509.429840,122.842384 500.186493,122.958130 
	C487.028137,123.122910 473.866211,123.000000 460.352997,123.000000 
	C460.352997,89.847748 460.352997,56.778591 460.352997,23.217211 
	C461.474243,23.155727 462.894073,23.011311 464.314026,23.010099 
	C482.311035,22.994751 500.320496,22.576353 518.302002,23.104445 
	C542.176636,23.805613 563.149475,37.592075 567.128357,63.643093 
	C569.045288,76.193863 567.306152,87.802727 561.296631,99.245499 
z"/>
<path fill="#000000" opacity="1.000000" stroke="none" 
	d="
M250.162064,123.990250 
	C252.649506,116.601601 254.957672,109.146736 257.657684,101.836601 
	C266.070251,79.060318 274.631165,56.338833 283.131500,33.604202 
	C283.366638,34.554897 283.596802,36.008251 284.082947,37.370216 
	C288.702850,50.312824 293.328552,63.253632 298.026611,76.168030 
	C303.977692,92.526871 309.997742,108.860611 315.610687,125.469948 
	C313.709808,124.209595 311.603699,122.946098 310.778076,121.107559 
	C308.751953,116.595795 305.137207,116.926544 301.276642,116.964172 
	C290.640442,117.067863 279.999634,117.153404 269.366394,116.947456 
	C261.960297,116.804008 254.486633,115.955605 250.162064,123.990250 
z"/>
<path fill="#15A5D8" opacity="1.000000" stroke="none" 
	d="
M250.001617,124.321167 
	C254.486633,115.955605 261.960297,116.804008 269.366394,116.947456 
	C279.999634,117.153404 290.640442,117.067863 301.276642,116.964172 
	C305.137207,116.926544 308.751953,116.595795 310.778076,121.107559 
	C311.603699,122.946098 313.709808,124.209595 315.535706,125.862312 
	C316.893097,127.743629 317.948120,129.497360 318.768616,131.822128 
	C318.512360,136.097443 318.229004,139.940552 323.121246,141.037079 
	C322.298981,141.696381 321.476715,142.355667 319.861389,143.018188 
	C294.766632,143.016632 270.464935,143.011826 246.163223,143.007019 
	C244.990845,141.749313 243.818481,140.491608 243.180267,139.013000 
	C243.870071,138.772156 244.025696,138.752197 244.181320,138.732239 
	C244.075562,138.479904 243.969803,138.227570 243.864044,137.975235 
	C243.917419,137.528427 243.970795,137.081619 244.289139,136.172836 
	C244.782837,135.479782 244.918732,135.203094 244.961823,134.880798 
	C246.588272,131.471237 248.214722,128.061661 250.001617,124.321167 
z"/>
<path fill="#000000" opacity="1.000000" stroke="none" 
	d="
M246.088989,143.367096 
	C270.464935,143.011826 294.766632,143.016632 319.533508,143.086578 
	C318.662720,145.524796 317.326721,147.897827 315.915436,150.630661 
	C294.203522,150.986359 272.566925,150.982254 250.465302,150.911896 
	C248.671768,148.472824 247.343246,146.100006 246.088989,143.367096 
z"/>
<path fill="#15A5D8" opacity="1.000000" stroke="none" 
	d="
M323.418823,140.872131 
	C318.229004,139.940552 318.512360,136.097443 318.820740,132.172241 
	C320.643707,134.869919 322.180054,137.788559 323.418823,140.872131 
z"/>
<path fill="#15A5D8" opacity="1.000000" stroke="none" 
	d="
M244.720093,134.975937 
	C244.918732,135.203094 244.782837,135.479782 244.360016,135.842346 
	C244.270065,135.672913 244.374222,135.371994 244.720093,134.975937 
z"/>
<path fill="#15A5D8" opacity="1.000000" stroke="none" 
	d="
M243.642426,138.080750 
	C243.969803,138.227570 244.075562,138.479904 244.181320,138.732239 
	C244.025696,138.752197 243.870071,138.772156 243.474304,138.716248 
	C243.234161,138.640366 243.420792,138.186279 243.642426,138.080750 
z"/>
</svg>