<svg version="1.1" id="Layer_1" xmlns="http://www.w3.org/2000/svg" xmlns:xlink="http://www.w3.org/1999/xlink" x="0px" y="0px"
	 width="100%" viewBox="0 0 2144 473" enable-background="new 0 0 2144 473" xml:space="preserve">
<path fill="#FFFFFF" opacity="1.000000" stroke="none" 
	d="
M1598.000000,474.000000 
	C1065.384033,474.000000 533.268188,474.000000 1.076127,474.000000 
	C1.076127,316.399139 1.076127,158.798264 1.076127,1.098682 
	C715.666687,1.098682 1430.333374,1.098682 2144.973633,1.098682 
	C2144.973633,158.732086 2144.973633,316.366058 2144.973633,474.000000 
	C1962.797974,474.000000 1780.649048,474.000000 1598.000000,474.000000 
M1714.068726,278.468964 
	C1714.287476,278.702942 1714.541504,278.888763 1714.924072,279.474518 
	C1714.924072,279.474518 1715.044434,279.916138 1715.033936,280.682312 
	C1719.212646,289.058258 1723.381958,297.438873 1727.614990,305.787354 
	C1727.737793,306.029480 1728.529785,305.932343 1729.000000,306.000000 
	C1729.000000,306.000000 1729.006348,305.990814 1728.923828,306.746704 
	C1731.994141,312.956055 1734.948853,319.225769 1738.156860,325.363190 
	C1747.050659,342.378357 1756.015625,359.356659 1765.022339,376.312439 
	C1769.598755,384.927887 1774.242554,393.510803 1779.071655,401.985504 
	C1779.825073,403.307709 1781.732422,403.972412 1783.766602,405.032928 
	C1784.410156,405.554230 1785.048218,406.521332 1785.698120,406.529236 
	C1794.077271,406.631348 1802.457886,406.596802 1811.060059,406.596802 
	C1807.722778,399.148590 1804.782593,392.586975 1801.997925,385.279602 
	C1800.833374,382.827423 1799.801514,380.300537 1798.473267,377.940430 
	C1796.413818,374.280548 1794.152344,370.734314 1791.324219,366.856415 
	C1790.568604,365.991577 1789.619751,365.231445 1789.086060,364.246368 
	C1777.379395,342.641510 1765.651001,321.047852 1754.080566,299.369904 
	C1748.959839,289.775909 1744.176758,280.001678 1739.127075,270.086700 
	C1749.294800,264.421417 1758.697021,259.198151 1768.074707,253.930862 
	C1768.904541,253.464752 1769.679321,252.801697 1770.298584,252.075638 
	C1773.783569,247.989548 1777.244751,243.882034 1780.640381,239.721603 
	C1781.534912,238.625549 1782.250000,237.358688 1782.904541,236.096191 
	C1784.314209,233.377472 1785.631104,230.610641 1787.553711,227.959305 
	C1787.644043,227.636154 1787.734253,227.313004 1787.938599,226.513718 
	C1787.938599,226.513718 1788.012329,226.029739 1788.582764,225.969543 
	C1788.668579,225.643570 1788.754272,225.317581 1788.953735,224.548767 
	C1788.953735,224.548767 1789.046021,224.101059 1789.604248,223.975632 
	C1789.688232,223.648117 1789.772217,223.320602 1789.953857,222.332733 
	C1789.969238,221.888336 1789.984619,221.443924 1790.573853,220.967911 
	C1790.660645,220.642365 1790.747437,220.316818 1790.936279,219.312683 
	C1790.950439,218.855606 1790.964600,218.398544 1791.555786,217.966995 
	C1791.647705,217.641663 1791.739624,217.316315 1791.939087,216.344055 
	C1791.964355,215.908142 1791.989746,215.472229 1792.584717,214.970947 
	C1792.671631,214.644562 1792.758545,214.318161 1792.948364,213.359161 
	C1792.977905,212.933838 1793.007446,212.508514 1793.599487,211.974747 
	C1793.685059,211.647339 1793.770630,211.319931 1793.953247,210.198578 
	C1793.968994,209.132950 1793.984863,208.067307 1794.573608,206.968231 
	C1794.663330,206.642624 1794.753052,206.317017 1794.945801,205.199646 
	C1794.977661,204.137070 1795.009521,203.074509 1795.697876,201.875595 
	C1795.743530,201.241608 1795.789185,200.607620 1795.947632,199.163483 
	C1796.256348,197.115891 1796.565063,195.068298 1797.044312,192.346695 
	C1796.985352,191.890701 1796.926514,191.434708 1796.979858,190.057968 
	C1796.598267,183.380676 1796.216675,176.703369 1796.022461,169.385239 
	C1795.700317,168.917572 1795.378052,168.449890 1794.944092,167.196060 
	C1794.902954,166.140121 1794.861694,165.084183 1795.016113,163.329178 
	C1794.708496,162.542755 1794.400879,161.756332 1793.948853,160.330063 
	C1793.904175,159.896301 1793.859497,159.462540 1794.012817,158.387939 
	C1793.689941,157.920578 1793.367065,157.453217 1792.944702,156.335068 
	C1792.901367,155.899658 1792.858032,155.464249 1793.013062,154.259872 
	C1791.334106,150.219482 1789.655273,146.179077 1787.272217,141.811066 
	C1785.241333,138.389938 1786.182007,132.945679 1780.521973,131.919632 
	C1780.222046,131.865265 1780.284668,130.399323 1779.976562,129.676422 
	C1779.374023,128.262451 1778.919556,126.621490 1777.890869,125.582222 
	C1774.074707,121.727074 1770.873047,117.175819 1764.950562,115.802895 
	C1762.964600,115.342537 1761.716431,112.273331 1759.697144,111.267967 
	C1754.930908,108.894905 1749.903809,107.045517 1745.579102,104.898476 
	C1745.528687,104.671196 1745.478149,104.443916 1745.427734,104.216675 
	C1745.290894,104.252037 1745.036865,104.285286 1745.036255,104.323074 
	C1745.031616,104.573830 1745.081543,104.825569 1744.466675,104.512215 
	C1741.320068,103.681046 1738.173584,102.849884 1735.596191,101.866737 
	C1735.519897,101.648338 1735.443481,101.429947 1735.367188,101.211540 
	C1735.237427,101.267685 1734.991699,101.338600 1734.996704,101.377541 
	C1735.028809,101.629097 1735.115479,101.873672 1734.567261,101.472054 
	C1730.959595,99.147949 1726.600464,100.447403 1722.686768,99.653328 
	C1716.995117,98.498589 1710.564575,98.565559 1704.537109,98.443253 
	C1673.901367,97.821594 1643.243530,98.279007 1612.593628,98.397697 
	C1610.096802,98.407356 1607.601196,98.711449 1605.026489,99.821709 
	C1605.017822,200.634766 1605.008301,301.447845 1605.009888,402.260895 
	C1605.009888,403.588409 1605.153564,404.915924 1605.882202,406.688416 
	C1614.150146,406.688416 1622.417969,406.688416 1631.110107,406.688416 
	C1631.110107,362.179199 1631.110107,317.969391 1631.110107,273.620911 
	C1635.362061,273.620911 1639.188110,273.631165 1643.014160,273.619232 
	C1665.656372,273.548645 1688.298462,273.472900 1710.906738,274.200531 
	C1711.937866,275.467041 1712.968872,276.733551 1714.068726,278.468964 
M1941.889526,382.555359 
	C1941.922729,343.485870 1941.957397,304.416412 1941.975708,265.346924 
	C1941.975952,264.865814 1941.770752,264.384644 1942.612305,263.647491 
	C1981.334473,263.638275 2020.056641,263.629089 2059.371826,263.969971 
	C2059.795898,263.849304 2060.219727,263.728638 2060.643799,263.607880 
	C2060.124023,263.382050 2059.604004,263.156219 2059.030518,262.003296 
	C2059.030518,255.068268 2059.030518,248.133240 2059.030518,240.818787 
	C2019.062622,240.818787 1979.655640,240.818787 1940.319336,240.818787 
	C1940.319336,200.690659 1940.319336,160.955017 1940.319336,120.811417 
	C1989.006470,120.811417 2037.410034,120.811417 2085.706299,120.811417 
	C2085.706299,113.652046 2085.706299,106.905502 2085.706299,100.266266 
	C2029.676025,100.266266 1973.939941,100.266266 1917.998901,100.266266 
	C1917.998901,202.376343 1917.998901,304.187164 1917.518799,405.979645 
	C1917.518799,405.979645 1917.058838,405.841400 1917.020020,404.924774 
	C1917.020020,303.266571 1917.020020,201.608383 1917.020020,99.950195 
	C1916.000000,101.572357 1915.999634,103.198181 1916.000000,104.824013 
	C1916.022461,205.245483 1916.045044,305.666931 1916.276733,406.738586 
	C1916.917725,406.678253 1917.558594,406.617950 1919.108887,406.609406 
	C1977.010132,406.596893 2034.911255,406.584381 2093.667725,406.961395 
	C2093.991943,406.952850 2094.600586,406.945770 2094.600586,406.935547 
	C2094.641113,399.114136 2094.640625,391.292480 2094.640625,383.470856 
	C2093.821533,385.600464 2093.894287,387.725159 2093.807129,389.843262 
	C2093.586426,395.217529 2093.294189,400.588898 2093.022461,405.029083 
	C2093.022461,398.093567 2093.022461,391.158081 2093.022461,383.966888 
	C2090.687500,383.966888 2088.879883,383.966858 2087.072266,383.966858 
	C2039.752563,383.966888 1992.432739,383.975739 1945.113037,383.930695 
	C1943.449829,383.929108 1941.787109,383.392303 1940.613525,383.021210 
	C1940.613525,383.021210 1941.087646,382.874420 1941.889526,382.555359 
M1387.428833,406.703278 
	C1387.973022,406.628387 1388.517334,406.553497 1389.981812,406.603455 
	C1396.973877,406.643982 1403.965820,406.684509 1411.836548,406.672729 
	C1411.903687,393.705444 1412.035645,380.738129 1412.025269,367.770905 
	C1412.000854,337.502991 1411.907837,307.235138 1412.027710,276.193695 
	C1412.935669,274.041901 1413.625977,271.763000 1414.793335,269.762634 
	C1418.083374,264.124603 1421.611938,258.626556 1424.968018,253.026321 
	C1429.616333,245.269943 1434.155396,237.448105 1438.811768,229.696671 
	C1443.152344,222.471054 1447.672729,215.352478 1451.956177,208.093674 
	C1457.795898,198.197418 1463.317871,188.109924 1469.314941,178.311783 
	C1472.105591,173.752365 1476.054077,169.901901 1478.848755,165.344437 
	C1485.626587,154.291519 1492.090698,143.044189 1498.572632,131.812515 
	C1502.378906,125.217461 1505.427734,118.105492 1509.855591,111.976089 
	C1512.989746,107.637566 1514.923096,103.691811 1513.552979,98.269554 
	C1507.810791,98.269554 1501.966919,98.748245 1496.239990,98.135544 
	C1490.459961,97.517174 1486.924561,100.313110 1484.182495,104.495346 
	C1480.855835,109.569031 1478.024902,114.966614 1474.952515,120.208275 
	C1462.556641,141.356308 1450.219482,162.539062 1437.727539,183.630249 
	C1426.867432,201.966385 1415.883911,220.230347 1404.810669,238.438354 
	C1403.043213,241.344528 1400.517822,243.789764 1397.880005,247.013992 
	C1396.182129,243.483414 1395.111938,241.174667 1393.971191,238.901291 
	C1390.116089,231.217850 1386.596313,223.336136 1382.263916,215.930649 
	C1377.939453,208.539200 1372.534302,201.785126 1368.096436,194.452942 
	C1365.237671,189.729584 1363.735229,184.176376 1360.815308,179.500702 
	C1351.606934,164.756058 1344.097778,148.961395 1332.972778,135.371948 
	C1329.748657,131.433609 1328.603027,125.863678 1325.794189,121.498886 
	C1321.577881,114.946999 1316.938354,108.634048 1312.043945,102.570595 
	C1310.402100,100.536591 1307.526611,98.553665 1305.049561,98.322876 
	C1298.659668,97.727531 1292.177490,98.123528 1284.715820,98.123528 
	C1286.312988,102.454407 1287.185181,106.281555 1289.032349,109.559196 
	C1295.015015,120.174820 1301.302734,130.620407 1307.569702,141.073654 
	C1320.105225,161.983154 1332.683105,182.867432 1345.284668,203.737305 
	C1356.145508,221.724350 1367.289185,239.545837 1377.841797,257.711182 
	C1381.888794,264.677643 1386.231567,272.113007 1387.600342,279.837830 
	C1389.453125,290.294250 1388.572754,301.235016 1388.387207,311.504761 
	C1388.120239,310.653870 1387.853271,309.802948 1387.139282,307.526886 
	C1387.139282,341.430725 1387.139282,373.826935 1387.428833,406.703278 
M1168.496582,406.701691 
	C1169.021606,406.619843 1169.546753,406.537994 1170.988281,406.598541 
	C1177.987183,406.572479 1184.986206,406.546417 1192.815674,406.838287 
	C1193.215332,405.302551 1193.963989,403.767029 1193.964844,402.231079 
	C1194.020142,302.782532 1194.014771,203.333954 1194.012817,103.885368 
	C1194.012817,102.553200 1193.986816,101.221031 1193.973145,99.888863 
	C1193.541504,99.897484 1193.109863,99.906105 1192.303467,99.809074 
	C1192.303467,99.809074 1191.973267,100.015289 1191.040283,99.970154 
	C1183.772217,99.970154 1176.504272,99.970154 1168.844727,99.970154 
	C1168.844727,147.573669 1168.844727,194.639740 1168.844727,241.589325 
	C1106.384521,241.589325 1044.325195,241.589325 981.857910,241.589325 
	C981.857910,194.235626 981.857910,147.180084 981.857910,100.258530 
	C974.364258,100.258530 967.283386,100.258530 959.949585,100.258530 
	C959.949585,202.349686 959.949585,304.148987 959.220032,405.502502 
	C959.149780,403.676666 959.018250,401.850830 959.018066,400.024994 
	C959.008240,301.744537 959.009583,203.464096 959.009705,105.183647 
	C959.009705,103.327766 959.009705,101.471893 959.009705,99.616013 
	C958.674744,99.615356 958.339722,99.614708 958.004761,99.614052 
	C958.004761,101.083633 958.004700,102.553207 958.004700,104.022789 
	C958.005127,203.469284 958.005554,302.915771 958.006592,402.362274 
	C958.006592,403.528290 957.809814,404.752655 958.118652,405.831268 
	C958.240417,406.256500 959.497375,406.356659 961.143433,406.615173 
	C968.726624,406.615173 976.309814,406.615173 984.265869,406.615173 
	C984.265869,358.872864 984.265869,311.498260 984.265869,264.000000 
	C1033.767700,264.000000 1082.890869,263.989502 1132.014038,264.007507 
	C1144.001465,264.011902 1155.989014,264.109833 1167.992188,265.081146 
	C1167.994751,287.200409 1167.976318,309.319702 1168.005859,331.438934 
	C1168.039185,356.383148 1168.115479,381.327332 1168.496582,406.701691 
M109.805916,404.505798 
	C110.966263,404.887512 112.101509,405.400818 113.291382,405.627747 
	C118.021248,406.529877 122.842133,407.056091 127.491249,408.256287 
	C134.283310,410.009735 141.013947,411.732025 148.126968,411.232239 
	C150.922913,411.035858 153.746246,411.157501 156.554749,411.227783 
	C161.174362,411.343414 165.857483,412.091217 170.394394,411.557465 
	C176.370972,410.854340 182.232056,409.169525 187.743896,408.390076 
	C188.058289,408.422150 188.372696,408.454254 188.687088,408.486359 
	C188.456299,408.325806 188.225510,408.165222 188.180634,407.317505 
	C193.256424,405.672119 198.507950,404.426056 203.366791,402.287689 
	C210.639694,399.086975 217.119736,394.667480 223.023346,389.133850 
	C231.157593,381.509460 237.254944,372.695465 242.274368,362.749329 
	C242.345108,362.456421 242.415833,362.163513 242.486542,361.870605 
	C242.205673,362.144012 241.924805,362.417419 242.489746,362.331573 
	C242.996643,360.167572 243.535858,358.010559 244.004593,355.838348 
	C245.625931,348.324799 248.440475,340.916107 247.314316,333.087494 
	C246.482346,327.304199 248.922913,321.518372 246.257217,315.634003 
	C244.538879,311.840820 245.407791,306.893066 243.753952,303.049347 
	C240.774704,296.125214 236.971634,289.524200 233.143539,283.005005 
	C228.946518,275.857483 223.060974,270.099365 215.928848,265.986115 
	C206.677597,260.650757 197.165436,255.747147 187.617401,250.952759 
	C178.006088,246.126587 168.191574,241.706772 158.505722,237.026886 
	C148.296936,232.094330 138.169006,226.993790 127.942284,222.099243 
	C119.201149,217.915710 111.745728,212.029251 105.460533,204.788986 
	C98.380943,196.633606 94.001968,186.988449 93.223976,176.208603 
	C92.899437,171.711746 94.587845,167.069595 95.719307,162.249847 
	C95.719307,162.249847 96.038979,161.957321 96.636421,161.844559 
	C96.638680,160.768921 96.640938,159.693283 97.287003,158.732559 
	C97.339630,158.434906 97.392258,158.137238 97.444878,157.839584 
	C97.178314,158.137054 96.911743,158.434509 97.475128,158.439774 
	C98.812622,154.983185 99.440643,150.978653 101.612541,148.166504 
	C110.213264,137.030334 121.191414,128.724197 133.791809,123.552780 
	C134.158936,123.331055 134.526062,123.109337 135.396698,122.340263 
	C139.185303,121.476471 142.958969,120.538300 146.767563,119.774170 
	C149.452438,119.235497 152.174698,118.684479 154.897812,118.574799 
	C161.419556,118.312088 167.977219,117.915474 174.470230,118.340088 
	C178.536453,118.606010 182.511658,120.263847 186.753784,121.695015 
	C186.753784,121.695015 187.049042,122.044670 187.149384,122.654877 
	C188.296799,122.682503 189.444214,122.710129 190.269852,123.249657 
	C190.535767,123.361656 190.801666,123.473648 191.067581,123.585648 
	C190.860947,123.286240 190.654327,122.986824 190.785995,123.481773 
	C191.653000,123.849800 192.502197,124.269012 193.389755,124.577988 
	C203.208267,127.996048 212.596741,132.086411 220.335846,139.399139 
	C225.055405,143.858688 230.437241,142.951019 234.229797,137.566055 
	C235.756775,135.397903 237.149719,133.135895 238.640610,130.941696 
	C242.624191,125.078888 241.945969,121.441963 235.808350,117.845345 
	C226.426697,112.347733 217.190857,106.501610 207.398911,101.841972 
	C201.708572,99.134148 195.076096,98.354912 188.821106,96.908783 
	C186.107712,96.281464 183.260849,96.257042 180.503632,95.788155 
	C175.424438,94.924423 170.399796,93.613663 165.290802,93.086716 
	C160.079208,92.549194 155.172638,93.835030 150.088120,95.653168 
	C144.799088,97.544441 138.674591,96.962936 132.992416,97.919884 
	C121.720238,99.818291 111.345001,104.259209 102.330490,111.176476 
	C96.006615,116.029076 89.861992,121.421478 84.823334,127.548218 
	C80.608620,132.673096 78.307678,139.330673 74.794731,145.087067 
	C72.022362,149.629944 71.203148,154.508240 70.661774,159.635986 
	C70.216087,163.857452 68.469681,168.033539 68.575111,172.197449 
	C68.700043,177.131378 68.598518,182.065979 69.459442,187.144485 
	C70.678497,194.335571 72.871758,200.916275 75.773087,207.369904 
	C78.738556,213.966217 82.889923,219.695465 88.053040,224.981430 
	C93.992424,231.062180 100.641403,235.971695 107.884018,240.070877 
	C116.345840,244.860092 125.145760,249.057861 133.848099,253.414169 
	C139.974442,256.480927 146.134766,259.488922 152.365021,262.336975 
	C163.330170,267.349609 174.877686,271.336792 185.219467,277.395325 
	C195.786835,283.585999 204.736877,292.047791 212.886276,301.580994 
	C219.808578,309.678711 220.963150,319.037872 222.654007,328.414307 
	C223.632050,333.837921 221.951065,339.383301 220.688904,344.960693 
	C218.933823,352.716309 215.409683,359.043213 210.762909,364.978455 
	C203.963821,373.662750 194.859222,379.555145 184.744827,383.400024 
	C176.961853,386.358643 168.820129,388.873779 160.095581,387.165955 
	C157.564072,386.670441 154.781769,387.627563 152.152512,387.424835 
	C146.467743,386.986481 140.674896,386.777588 135.174530,385.447876 
	C129.611572,384.103058 124.244667,381.752533 118.979836,379.418579 
	C112.447769,376.522888 105.780609,373.709320 99.777855,369.904236 
	C93.639473,366.013184 88.395607,360.737610 82.439415,356.521210 
	C79.525291,354.458252 75.992104,353.689026 73.060364,357.303772 
	C70.707741,360.204468 68.215790,363.013245 65.580971,365.658997 
	C61.609383,369.647095 61.680492,373.227325 65.996300,377.048126 
	C69.350555,380.017670 72.498672,383.241333 76.011200,386.005402 
	C80.382401,389.445129 84.734772,393.114410 89.639244,395.619659 
	C96.002853,398.870270 102.902397,401.071716 109.265205,404.253632 
	C109.535126,404.360657 109.805046,404.467651 110.074966,404.574646 
	C109.860390,404.276581 109.645821,403.978485 109.805916,404.505798 
M806.190979,273.687103 
	C807.883667,272.578247 809.497070,271.316589 811.284119,270.389648 
	C816.378052,267.747437 822.638428,266.321533 826.449585,262.455200 
	C834.199158,254.593201 841.450317,245.961426 847.403442,236.682327 
	C853.864014,226.612061 857.289368,214.733383 857.732300,202.876556 
	C858.441467,183.895081 859.696655,164.543533 848.109924,147.417480 
	C844.301392,141.788193 841.814575,135.269882 838.631165,129.206467 
	C838.194031,128.373779 837.288452,127.726204 836.481934,127.160858 
	C834.796814,125.979576 832.891052,125.078896 831.329346,123.762352 
	C827.282104,120.350288 823.677917,116.318916 819.317993,113.399040 
	C815.282410,110.696342 810.496765,109.113579 806.586731,106.919106 
	C806.625427,106.690094 806.664124,106.461090 806.702881,106.232079 
	C806.304504,106.271202 805.906189,106.310326 804.813538,106.602058 
	C802.376038,105.502960 799.965576,104.337357 797.489990,103.331970 
	C796.190796,102.804337 794.798462,102.375053 793.412170,102.217278 
	C788.896606,101.703308 784.337830,101.517906 779.846008,100.861221 
	C774.910645,100.139687 770.044678,98.325272 765.124878,98.231926 
	C750.475586,97.953979 735.814880,98.335030 721.158447,98.369133 
	C701.011841,98.416008 680.865051,98.380875 660.942932,98.380875 
	C660.942932,100.566193 660.942871,102.521606 660.942871,104.477020 
	C660.943054,203.266525 660.942078,302.056030 660.952026,400.845520 
	C660.952209,402.671600 661.082642,404.497681 660.695862,406.136353 
	C660.833313,406.163269 660.970764,406.190216 661.965393,406.573273 
	C669.297485,406.566986 676.629639,406.560669 684.804688,406.867065 
	C685.222595,405.342499 686.002930,403.818604 686.005615,402.293304 
	C686.072876,363.656219 686.061707,325.019012 686.046509,286.381805 
	C686.045898,284.895172 685.868958,283.408600 686.688232,281.637573 
	C708.445801,281.615326 730.203430,281.584808 751.960999,281.582275 
	C754.440186,281.581970 757.216370,282.509552 759.346863,281.688660 
	C768.332947,278.226288 778.072083,281.780060 787.096924,278.246826 
	C789.789368,277.192719 793.105164,278.013123 796.112976,276.300262 
	C798.669800,274.844238 801.991394,274.731110 805.260681,273.730560 
	C805.260681,273.730560 805.512695,273.407532 806.190979,273.687103 
M339.880829,405.927612 
	C340.078644,406.230988 340.276428,406.534332 340.474274,406.837708 
	C340.475006,406.459961 340.475739,406.082184 340.683136,405.094666 
	C341.791656,404.551056 343.455048,404.292816 343.908020,403.412079 
	C345.464661,400.385193 346.573761,397.130432 347.897247,393.980896 
	C350.577118,387.603577 353.346893,381.263336 355.964203,374.860626 
	C358.291473,369.167419 360.571838,363.450104 362.674988,357.671387 
	C365.203674,350.723236 367.548645,343.707520 369.923767,336.704346 
	C371.436859,332.242981 372.734436,327.704956 374.358582,323.285797 
	C376.046265,318.693817 378.452148,314.323822 379.729645,309.634888 
	C380.996307,304.985687 384.997162,301.048950 389.903198,301.032776 
	C391.564301,301.027313 393.225372,300.993927 394.812286,301.626160 
	C395.869049,304.031525 396.648773,306.609833 398.025482,308.815491 
	C411.847626,330.960297 425.887268,352.970245 439.587250,375.189819 
	C443.669495,381.810669 446.758636,381.695221 451.140442,374.376312 
	C462.036713,356.176392 473.011230,338.017731 483.520691,319.595154 
	C486.665283,314.082886 491.915192,309.241882 492.011078,301.997681 
	C495.177399,301.999054 498.346619,302.084595 501.509125,301.975494 
	C504.095459,301.886200 505.293213,302.518677 506.284882,305.434235 
	C509.462128,314.775757 513.500977,323.819550 516.946411,333.075378 
	C525.439331,355.891022 533.761658,378.770142 542.222717,401.597748 
	C543.381714,404.724670 545.425476,406.444977 549.272583,406.270294 
	C556.808838,405.928101 564.371704,406.169769 571.991638,406.169769 
	C571.596985,405.276917 571.096252,404.282196 570.707825,403.245422 
	C560.131287,375.018890 549.563232,346.789154 539.000122,318.557617 
	C530.818726,296.691589 522.641602,274.823975 514.470825,252.954010 
	C508.107819,235.922745 501.760986,218.885406 495.400391,201.853241 
	C488.599548,183.642075 481.793060,165.432999 474.985016,147.224503 
	C469.456787,132.438980 463.898438,117.664650 458.414398,102.862762 
	C457.477936,100.335068 456.032654,98.938202 453.181580,98.971268 
	C445.867371,99.056122 438.551514,98.999603 431.364166,98.999603 
	C393.954620,199.312378 356.664825,299.304077 318.704010,399.264252 
	C318.671844,399.573212 318.639709,399.882141 318.607574,400.191101 
	C318.857269,399.862854 319.106964,399.534607 318.395081,399.729950 
	C318.381744,400.808319 318.234894,401.906647 318.392303,402.959503 
	C318.553009,404.034668 319.008514,405.979309 319.341675,405.980713 
	C326.431549,406.011017 333.522339,405.820862 339.880829,405.927612 
M983.989197,101.887794 
	C983.849060,101.096260 983.708862,100.304718 983.568726,99.513184 
	C983.438293,99.538208 983.307800,99.563225 983.177368,99.588249 
	C983.177368,146.601486 983.177368,193.614731 983.177368,240.627975 
	C983.447998,240.628281 983.718567,240.628586 983.989197,240.628891 
	C983.989197,194.690628 983.989197,148.752380 983.989197,101.887794 
M1166.993652,149.500000 
	C1166.993652,179.791809 1166.993652,210.083618 1166.993652,240.375427 
	C1167.233154,240.373688 1167.472656,240.371948 1167.712158,240.370209 
	C1167.712158,193.458984 1167.712158,146.547775 1167.712158,99.636559 
	C1167.472656,99.635864 1167.233154,99.635170 1166.993652,99.634476 
	C1166.993652,115.922981 1166.993652,132.211487 1166.993652,149.500000 
M1941.998901,168.500000 
	C1941.998901,153.206955 1941.998901,137.913910 1941.998901,122.620872 
	C1941.762817,122.624092 1941.526611,122.627312 1941.290527,122.630531 
	C1941.290527,161.545074 1941.290527,200.459610 1941.290527,239.374146 
	C1941.526611,239.374283 1941.762817,239.374420 1941.998901,239.374557 
	C1941.998901,216.083038 1941.998901,192.791519 1941.998901,168.500000 
z"/>
<path fill="#020202" opacity="1.000000" stroke="none" 
	d="
M1788.012329,226.029739 
	C1788.012329,226.029739 1787.938599,226.513718 1787.705933,226.858948 
	C1787.270020,227.393768 1787.107544,227.613541 1786.985962,227.863495 
	C1785.631104,230.610641 1784.314209,233.377472 1782.904541,236.096191 
	C1782.250000,237.358688 1781.534912,238.625549 1780.640381,239.721603 
	C1777.244751,243.882034 1773.783569,247.989548 1770.298584,252.075638 
	C1769.679321,252.801697 1768.904541,253.464752 1768.074707,253.930862 
	C1758.697021,259.198151 1749.294800,264.421417 1739.127075,270.086700 
	C1744.176758,280.001678 1748.959839,289.775909 1754.080566,299.369904 
	C1765.651001,321.047852 1777.379395,342.641510 1789.086060,364.246368 
	C1789.619751,365.231445 1790.568604,365.991577 1791.670898,367.367371 
	C1794.386719,373.127106 1796.685791,378.409637 1799.185181,383.595459 
	C1799.669067,384.599243 1800.936523,385.225159 1801.842529,386.025391 
	C1804.782593,392.586975 1807.722778,399.148590 1811.060059,406.596802 
	C1802.457886,406.596802 1794.077271,406.631348 1785.698120,406.529236 
	C1785.048218,406.521332 1784.410156,405.554230 1783.317017,404.649994 
	C1774.695190,389.404846 1766.424561,374.595612 1758.376587,359.666443 
	C1749.187744,342.621399 1740.207275,325.464142 1731.091919,308.379242 
	C1730.607300,307.470795 1729.710938,306.781952 1729.006348,305.990814 
	C1729.006348,305.990814 1729.000000,306.000000 1729.019287,305.618530 
	C1727.507446,302.085724 1726.127197,298.849579 1724.411987,295.801941 
	C1721.397583,290.445831 1718.178101,285.205109 1715.044434,279.916138 
	C1715.044434,279.916138 1714.924072,279.474518 1714.955078,278.966705 
	C1714.657471,278.305908 1714.328735,278.152954 1714.017090,277.656494 
	C1713.003052,276.008331 1711.971802,274.703644 1710.940674,273.398926 
	C1688.298462,273.472900 1665.656372,273.548645 1643.014160,273.619232 
	C1639.188110,273.631165 1635.362061,273.620911 1631.110107,273.620911 
	C1631.110107,317.969391 1631.110107,362.179199 1631.110107,406.688416 
	C1622.417969,406.688416 1614.150146,406.688416 1605.757812,406.500061 
	C1605.633301,406.311707 1605.954956,406.059052 1606.391113,405.942322 
	C1606.878906,405.163330 1606.975708,404.501038 1606.975708,403.838776 
	C1606.982666,303.413788 1606.985718,202.988800 1606.945068,102.563828 
	C1606.944702,101.418045 1606.375366,100.272499 1605.833740,99.050003 
	C1605.595947,98.973167 1605.104980,98.878723 1605.104980,98.878723 
	C1607.601196,98.711449 1610.096802,98.407356 1612.593628,98.397697 
	C1643.243530,98.279007 1673.901367,97.821594 1704.537109,98.443253 
	C1710.564575,98.565559 1716.995117,98.498589 1722.686768,99.653328 
	C1726.600464,100.447403 1730.959595,99.147949 1734.834717,101.773361 
	C1735.102295,102.074669 1735.026978,102.018738 1735.026978,102.018730 
	C1738.173584,102.849884 1741.320068,103.681046 1744.755859,104.773384 
	C1745.045166,105.034554 1744.982178,104.984413 1744.982178,104.984390 
	C1749.903809,107.045517 1754.930908,108.894905 1759.697144,111.267967 
	C1761.716431,112.273331 1762.964600,115.342537 1764.950562,115.802895 
	C1770.873047,117.175819 1774.074707,121.727074 1777.890869,125.582222 
	C1778.919556,126.621490 1779.374023,128.262451 1779.976562,129.676422 
	C1780.284668,130.399323 1780.222046,131.865265 1780.521973,131.919632 
	C1786.182007,132.945679 1785.241333,138.389938 1787.639648,142.371643 
	C1789.609741,146.964417 1791.212158,150.996613 1792.814697,155.028809 
	C1792.858032,155.464249 1792.901367,155.899658 1792.714844,156.777100 
	C1792.928101,157.822357 1793.371338,158.425583 1793.814697,159.028809 
	C1793.859497,159.462540 1793.904175,159.896301 1793.720825,160.812469 
	C1793.935425,162.206009 1794.377930,163.117126 1794.820557,164.028229 
	C1794.861694,165.084183 1794.902954,166.140121 1794.722656,167.708542 
	C1794.945923,168.822708 1795.390503,169.424377 1795.835083,170.026062 
	C1796.216675,176.703369 1796.598267,183.380676 1796.629883,190.573730 
	C1795.965088,191.495255 1795.650024,191.900986 1795.334961,192.306732 
	C1795.847900,192.544708 1796.360718,192.782715 1796.873657,193.020721 
	C1796.565063,195.068298 1796.256348,197.115891 1795.572754,199.584808 
	C1795.145752,200.674744 1795.093506,201.343338 1795.041382,202.011932 
	C1795.009521,203.074509 1794.977661,204.137070 1794.694092,205.714294 
	C1794.140259,206.397903 1793.992920,206.655487 1794.000610,207.001678 
	C1793.984863,208.067307 1793.968994,209.132950 1793.713623,210.736160 
	C1793.193237,211.470703 1793.047607,211.740524 1793.036987,212.083191 
	C1793.007446,212.508514 1792.977905,212.933838 1792.699707,213.802719 
	C1792.157104,214.427551 1792.011719,214.690903 1792.014893,215.036301 
	C1791.989746,215.472229 1791.964355,215.908142 1791.681030,216.769897 
	C1791.112427,217.347549 1790.964355,217.596130 1790.978760,217.941467 
	C1790.964600,218.398544 1790.950439,218.855606 1790.684448,219.768555 
	C1790.131348,220.395142 1789.987183,220.653503 1790.000000,220.999527 
	C1789.984619,221.443924 1789.969238,221.888336 1789.714844,222.807068 
	C1789.197754,223.483856 1789.054443,223.757065 1789.046021,224.101059 
	C1789.046021,224.101059 1788.953735,224.548767 1788.698242,224.894501 
	C1788.146973,225.420288 1788.003418,225.683456 1788.012329,226.029739 
M1757.956055,144.395508 
	C1757.317383,143.904968 1756.678589,143.414444 1755.762329,142.318115 
	C1750.845337,137.749069 1746.962402,131.710068 1739.344238,130.997757 
	C1738.285645,130.898758 1737.255981,130.199570 1736.270142,129.671570 
	C1733.861572,128.381790 1731.486572,127.029427 1729.193970,125.736450 
	C1729.193970,125.736450 1729.128052,125.679062 1729.307251,125.044060 
	C1727.158569,124.665565 1725.009766,124.287079 1722.937744,123.953377 
	C1722.937744,123.953377 1723.008301,124.007195 1722.792358,123.296738 
	C1692.251587,121.482796 1661.715210,121.715096 1631.217529,122.422691 
	C1631.217529,165.564804 1631.217529,207.637527 1631.217529,250.069946 
	C1663.385620,249.667404 1695.330566,251.070663 1727.190552,247.268173 
	C1727.190552,247.268173 1727.102539,247.303650 1727.602783,246.417221 
	C1729.673218,245.923965 1731.736816,245.399292 1733.815430,244.942993 
	C1741.758789,243.199158 1747.135864,237.574112 1751.870850,231.768356 
	C1757.906616,224.367722 1764.081055,216.823074 1766.078979,206.954712 
	C1766.693848,203.918365 1767.969360,201.015808 1768.942383,198.052002 
	C1769.217529,196.949585 1770.772095,195.962036 1770.848389,194.870941 
	C1771.149414,190.571655 1771.188843,186.226471 1770.905396,181.926010 
	C1770.773560,179.927597 1769.281860,178.023438 1769.126831,176.020752 
	C1768.949097,173.724701 1769.570312,171.366776 1770.039795,168.264709 
	C1769.707520,167.212158 1769.428223,166.139328 1769.034668,165.110275 
	C1766.278564,157.906128 1764.354858,150.239624 1758.000000,145.000000 
	C1758.000000,145.000000 1757.976685,145.016006 1757.956055,144.395508 
M1630.049561,140.500885 
	C1630.049561,134.526978 1630.049561,128.553070 1630.049561,122.579163 
	C1629.810669,122.586281 1629.571655,122.593399 1629.332764,122.600517 
	C1629.332764,164.849030 1629.332764,207.097549 1629.332764,249.346069 
	C1629.571655,249.346130 1629.810669,249.346207 1630.049561,249.346268 
	C1630.049561,213.397705 1630.049561,177.449127 1630.049561,140.500885 
M1795.474243,181.362854 
	C1795.554810,180.857513 1795.635254,180.352158 1795.715820,179.846817 
	C1795.515137,180.230347 1795.314575,180.613892 1795.474243,181.362854 
z"/>
<path fill="#000000" opacity="1.000000" stroke="none" 
	d="
M959.949585,405.948303 
	C959.949585,304.148987 959.949585,202.349686 959.949585,100.258530 
	C967.283386,100.258530 974.364258,100.258530 981.857910,100.258530 
	C981.857910,147.180084 981.857910,194.235626 981.857910,241.589325 
	C1044.325195,241.589325 1106.384521,241.589325 1168.844727,241.589325 
	C1168.844727,194.639740 1168.844727,147.573669 1168.844727,99.970154 
	C1176.504272,99.970154 1183.772217,99.970154 1191.518555,100.456482 
	C1191.983032,202.819626 1191.969116,304.696442 1191.979980,406.569763 
	C1192.004883,406.566284 1191.985107,406.520386 1191.985107,406.520386 
	C1184.986206,406.546417 1177.987183,406.572479 1170.514893,406.554413 
	C1170.041504,406.510284 1170.057373,406.569092 1170.014160,406.184265 
	C1169.937378,405.543427 1169.903687,405.287445 1169.955078,404.567627 
	C1170.044922,377.338715 1170.074097,350.573578 1170.046631,323.808502 
	C1170.026367,304.196991 1169.931641,284.585510 1169.901367,264.711578 
	C1169.634399,264.354004 1169.336304,264.258881 1168.772705,264.096191 
	C1168.330322,264.074036 1168.153320,264.119415 1167.976440,264.164764 
	C1155.989014,264.109833 1144.001465,264.011902 1132.014038,264.007507 
	C1082.890869,263.989502 1033.767700,264.000000 984.265869,264.000000 
	C984.265869,311.498260 984.265869,358.872864 984.265869,406.615173 
	C976.309814,406.615173 968.726624,406.615173 960.735840,406.394440 
	C960.328186,406.173706 959.949585,405.948303 959.949585,405.948303 
z"/>
<path fill="#010101" opacity="1.000000" stroke="none" 
	d="
M394.886444,300.973297 
	C393.225372,300.993927 391.564301,301.027313 389.903198,301.032776 
	C384.997162,301.048950 380.996307,304.985687 379.729645,309.634888 
	C378.452148,314.323822 376.046265,318.693817 374.358582,323.285797 
	C372.734436,327.704956 371.436859,332.242981 369.923767,336.704346 
	C367.548645,343.707520 365.203674,350.723236 362.674988,357.671387 
	C360.571838,363.450104 358.291473,369.167419 355.964203,374.860626 
	C353.346893,381.263336 350.577118,387.603577 347.897247,393.980896 
	C346.573761,397.130432 345.464661,400.385193 343.908020,403.412079 
	C343.455048,404.292816 341.791656,404.551056 340.615234,405.397675 
	C340.547333,405.700684 340.612976,405.673645 340.612976,405.673645 
	C333.522339,405.820862 326.431549,406.011017 319.341675,405.980713 
	C319.008514,405.979309 318.553009,404.034668 318.392303,402.959503 
	C318.234894,401.906647 318.381744,400.808319 318.856689,399.497925 
	C319.318298,399.265869 319.375000,399.295807 319.375000,399.295807 
	C356.664825,299.304077 393.954620,199.312378 431.364166,98.999603 
	C438.551514,98.999603 445.867371,99.056122 453.181580,98.971268 
	C456.032654,98.938202 457.477936,100.335068 458.414398,102.862762 
	C463.898438,117.664650 469.456787,132.438980 474.985016,147.224503 
	C481.793060,165.432999 488.599548,183.642075 495.400391,201.853241 
	C501.760986,218.885406 508.107819,235.922745 514.470825,252.954010 
	C522.641602,274.823975 530.818726,296.691589 539.000122,318.557617 
	C549.563232,346.789154 560.131287,375.018890 570.707825,403.245422 
	C571.096252,404.282196 571.596985,405.276917 571.991638,406.169769 
	C564.371704,406.169769 556.808838,405.928101 549.272583,406.270294 
	C545.425476,406.444977 543.381714,404.724670 542.222717,401.597748 
	C533.761658,378.770142 525.439331,355.891022 516.946411,333.075378 
	C513.500977,323.819550 509.462128,314.775757 506.284882,305.434235 
	C505.293213,302.518677 504.095459,301.886200 501.509125,301.975494 
	C498.346619,302.084595 495.177399,301.999054 491.525269,301.632629 
	C490.409393,300.151672 489.779327,299.035767 489.091431,297.478271 
	C487.939667,296.608856 486.844727,295.804962 485.752075,295.808075 
	C456.857697,295.889618 427.963562,296.054535 398.729248,296.162354 
	C397.221588,297.737427 396.054016,299.355347 394.886444,300.973297 
M487.928589,260.139343 
	C487.742706,259.037384 487.716156,257.878784 487.347565,256.841736 
	C478.690033,232.482834 470.171661,208.072220 461.242371,183.812958 
	C455.824615,169.093918 452.502258,153.478165 443.464264,140.196732 
	C437.592743,155.997604 431.820160,171.672028 425.912781,187.295471 
	C424.897339,189.981079 423.307922,192.449677 421.901581,194.441376 
	C421.682495,194.489517 421.463379,194.537674 421.244293,194.585831 
	C421.277618,194.718140 421.308136,194.963562 421.344727,194.964462 
	C421.586090,194.970490 421.828766,194.923859 421.478912,195.565002 
	C420.639374,198.868332 419.933960,202.213196 418.926361,205.464462 
	C417.667908,209.525101 416.296417,213.562820 414.721588,217.509842 
	C413.248077,221.202759 411.345337,224.722565 409.812988,228.394302 
	C407.942719,232.875687 406.031372,237.363144 404.568573,241.984344 
	C403.289459,246.025269 402.606964,250.255035 400.981812,254.770905 
	C397.181122,262.445435 393.215973,270.044800 389.657532,277.830048 
	C388.150879,281.126343 391.659180,285.998260 394.983215,285.985626 
	C421.949158,285.883026 448.915100,285.786713 475.881134,285.705688 
	C481.207001,285.689667 486.533417,285.719025 491.858978,285.779144 
	C497.779327,285.845947 499.659607,283.221375 497.048035,278.108154 
	C494.093414,272.323364 490.893433,266.663879 487.928589,260.139343 
z"/>
<path fill="#010101" opacity="1.000000" stroke="none" 
	d="
M683.961731,406.554382 
	C676.629639,406.560669 669.297485,406.566986 661.530273,406.429504 
	C661.095154,406.285767 661.152283,406.323761 661.152283,406.323761 
	C661.082642,404.497681 660.952209,402.671600 660.952026,400.845520 
	C660.942078,302.056030 660.943054,203.266525 660.942871,104.477020 
	C660.942871,102.521606 660.942932,100.566193 660.942932,98.380875 
	C680.865051,98.380875 701.011841,98.416008 721.158447,98.369133 
	C735.814880,98.335030 750.475586,97.953979 765.124878,98.231926 
	C770.044678,98.325272 774.910645,100.139687 779.846008,100.861221 
	C784.337830,101.517906 788.896606,101.703308 793.412170,102.217278 
	C794.798462,102.375053 796.190796,102.804337 797.489990,103.331970 
	C799.965576,104.337357 802.376038,105.502960 805.281067,106.657906 
	C805.748596,106.713753 806.041443,107.037636 806.041443,107.037636 
	C810.496765,109.113579 815.282410,110.696342 819.317993,113.399040 
	C823.677917,116.318916 827.282104,120.350288 831.329346,123.762352 
	C832.891052,125.078896 834.796814,125.979576 836.481934,127.160858 
	C837.288452,127.726204 838.194031,128.373779 838.631165,129.206467 
	C841.814575,135.269882 844.301392,141.788193 848.109924,147.417480 
	C859.696655,164.543533 858.441467,183.895081 857.732300,202.876556 
	C857.289368,214.733383 853.864014,226.612061 847.403442,236.682327 
	C841.450317,245.961426 834.199158,254.593201 826.449585,262.455200 
	C822.638428,266.321533 816.378052,267.747437 811.284119,270.389648 
	C809.497070,271.316589 807.883667,272.578247 805.613037,273.398987 
	C804.769836,273.176636 804.504456,273.242401 804.239136,273.308167 
	C804.484314,273.546692 804.729431,273.785278 804.974609,274.023804 
	C801.991394,274.731110 798.669800,274.844238 796.112976,276.300262 
	C793.105164,278.013123 789.789368,277.192719 787.096924,278.246826 
	C778.072083,281.780060 768.332947,278.226288 759.346863,281.688660 
	C757.216370,282.509552 754.440186,281.581970 751.960999,281.582275 
	C730.203430,281.584808 708.445801,281.615326 686.121704,281.720276 
	C685.555115,281.802979 685.361633,281.960175 685.140869,281.601562 
	C684.610352,282.862396 684.032593,284.481476 684.030151,286.101440 
	C683.968933,326.256775 683.968567,366.412231 683.973877,406.582947 
	C683.990295,406.598236 683.961731,406.554382 683.961731,406.554382 
M785.807373,125.364166 
	C782.222107,124.872559 778.534363,124.757301 775.071960,123.814468 
	C766.726501,121.541946 758.268799,120.958359 749.681335,121.027718 
	C736.186401,121.136719 722.688416,120.943703 709.194885,121.121986 
	C701.469849,121.224052 693.510620,119.556465 685.842896,123.701157 
	C685.842896,168.561646 685.842896,213.589630 685.842896,258.855377 
	C687.416992,258.855377 689.073853,258.892151 690.728760,258.849854 
	C712.695251,258.288666 734.661011,257.696564 756.628052,257.157990 
	C763.927307,256.979065 771.241882,257.136841 778.524170,256.709656 
	C781.057495,256.561096 783.480469,254.987671 786.016785,254.295959 
	C788.275818,253.679886 790.633423,253.434906 792.924744,252.923843 
	C794.138977,252.653015 795.415527,252.355377 796.473450,251.741531 
	C801.386292,248.890854 806.257507,246.103088 810.069275,241.597717 
	C813.154358,237.951279 817.923767,235.581848 820.513916,231.692276 
	C828.537598,219.643463 832.524902,206.025146 832.855286,191.592361 
	C833.003418,185.122910 832.297852,178.472473 830.850220,172.163330 
	C828.260559,160.876770 823.577637,150.440002 814.819702,142.373810 
	C813.461060,141.122421 811.519714,140.515396 810.110352,139.304749 
	C807.535950,137.093384 805.509155,133.993240 802.619629,132.456131 
	C797.681396,129.829178 792.253845,128.122086 787.581299,125.917824 
	C787.618103,125.687737 787.654907,125.457649 787.691711,125.227562 
	C787.294495,125.280098 786.897278,125.332634 785.807373,125.364166 
z"/>
<path fill="#020202" opacity="1.000000" stroke="none" 
	d="
M186.527695,121.297134 
	C182.511658,120.263847 178.536453,118.606010 174.470230,118.340088 
	C167.977219,117.915474 161.419556,118.312088 154.897812,118.574799 
	C152.174698,118.684479 149.452438,119.235497 146.767563,119.774170 
	C142.958969,120.538300 139.185303,121.476471 135.185669,122.662674 
	C134.974655,122.985077 135.050919,123.086685 135.180603,122.775200 
	C134.853531,122.658478 134.396774,122.853241 133.968521,123.025055 
	C133.997009,123.002098 134.056564,122.959557 134.056564,122.959557 
	C121.191414,128.724197 110.213264,137.030334 101.612541,148.166504 
	C99.440643,150.978653 98.812622,154.983185 97.078026,158.556976 
	C96.680923,158.674164 96.643196,158.617645 96.643196,158.617645 
	C96.640938,159.693283 96.638680,160.768921 96.284943,161.628601 
	C95.703636,161.376678 95.473816,161.340714 95.244003,161.304749 
	C95.282997,161.701019 95.321991,162.097260 95.360992,162.493515 
	C94.587845,167.069595 92.899437,171.711746 93.223976,176.208603 
	C94.001968,186.988449 98.380943,196.633606 105.460533,204.788986 
	C111.745728,212.029251 119.201149,217.915710 127.942284,222.099243 
	C138.169006,226.993790 148.296936,232.094330 158.505722,237.026886 
	C168.191574,241.706772 178.006088,246.126587 187.617401,250.952759 
	C197.165436,255.747147 206.677597,260.650757 215.928848,265.986115 
	C223.060974,270.099365 228.946518,275.857483 233.143539,283.005005 
	C236.971634,289.524200 240.774704,296.125214 243.753952,303.049347 
	C245.407791,306.893066 244.538879,311.840820 246.257217,315.634003 
	C248.922913,321.518372 246.482346,327.304199 247.314316,333.087494 
	C248.440475,340.916107 245.625931,348.324799 244.004593,355.838348 
	C243.535858,358.010559 242.996643,360.167572 242.083267,362.481934 
	C241.676788,362.632294 241.652237,362.569824 241.652237,362.569824 
	C237.254944,372.695465 231.157593,381.509460 223.023346,389.133850 
	C217.119736,394.667480 210.639694,399.086975 203.366791,402.287689 
	C198.507950,404.426056 193.256424,405.672119 188.123230,407.634399 
	C188.065826,407.951324 188.142807,407.906799 188.142807,407.906799 
	C182.232056,409.169525 176.370972,410.854340 170.394394,411.557465 
	C165.857483,412.091217 161.174362,411.343414 156.554749,411.227783 
	C153.746246,411.157501 150.922913,411.035858 148.126968,411.232239 
	C141.013947,411.732025 134.283310,410.009735 127.491249,408.256287 
	C122.842133,407.056091 118.021248,406.529877 113.291382,405.627747 
	C112.101509,405.400818 110.966263,404.887512 109.652893,404.106384 
	C109.499863,403.707001 109.571236,403.724823 109.571243,403.724823 
	C102.902397,401.071716 96.002853,398.870270 89.639244,395.619659 
	C84.734772,393.114410 80.382401,389.445129 76.011200,386.005402 
	C72.498672,383.241333 69.350555,380.017670 65.996300,377.048126 
	C61.680492,373.227325 61.609383,369.647095 65.580971,365.658997 
	C68.215790,363.013245 70.707741,360.204468 73.060364,357.303772 
	C75.992104,353.689026 79.525291,354.458252 82.439415,356.521210 
	C88.395607,360.737610 93.639473,366.013184 99.777855,369.904236 
	C105.780609,373.709320 112.447769,376.522888 118.979836,379.418579 
	C124.244667,381.752533 129.611572,384.103058 135.174530,385.447876 
	C140.674896,386.777588 146.467743,386.986481 152.152512,387.424835 
	C154.781769,387.627563 157.564072,386.670441 160.095581,387.165955 
	C168.820129,388.873779 176.961853,386.358643 184.744827,383.400024 
	C194.859222,379.555145 203.963821,373.662750 210.762909,364.978455 
	C215.409683,359.043213 218.933823,352.716309 220.688904,344.960693 
	C221.951065,339.383301 223.632050,333.837921 222.654007,328.414307 
	C220.963150,319.037872 219.808578,309.678711 212.886276,301.580994 
	C204.736877,292.047791 195.786835,283.585999 185.219467,277.395325 
	C174.877686,271.336792 163.330170,267.349609 152.365021,262.336975 
	C146.134766,259.488922 139.974442,256.480927 133.848099,253.414169 
	C125.145760,249.057861 116.345840,244.860092 107.884018,240.070877 
	C100.641403,235.971695 93.992424,231.062180 88.053040,224.981430 
	C82.889923,219.695465 78.738556,213.966217 75.773087,207.369904 
	C72.871758,200.916275 70.678497,194.335571 69.459442,187.144485 
	C68.598518,182.065979 68.700043,177.131378 68.575111,172.197449 
	C68.469681,168.033539 70.216087,163.857452 70.661774,159.635986 
	C71.203148,154.508240 72.022362,149.629944 74.794731,145.087067 
	C78.307678,139.330673 80.608620,132.673096 84.823334,127.548218 
	C89.861992,121.421478 96.006615,116.029076 102.330490,111.176476 
	C111.345001,104.259209 121.720238,99.818291 132.992416,97.919884 
	C138.674591,96.962936 144.799088,97.544441 150.088120,95.653168 
	C155.172638,93.835030 160.079208,92.549194 165.290802,93.086716 
	C170.399796,93.613663 175.424438,94.924423 180.503632,95.788155 
	C183.260849,96.257042 186.107712,96.281464 188.821106,96.908783 
	C195.076096,98.354912 201.708572,99.134148 207.398911,101.841972 
	C217.190857,106.501610 226.426697,112.347733 235.808350,117.845345 
	C241.945969,121.441963 242.624191,125.078888 238.640610,130.941696 
	C237.149719,133.135895 235.756775,135.397903 234.229797,137.566055 
	C230.437241,142.951019 225.055405,143.858688 220.335846,139.399139 
	C212.596741,132.086411 203.208267,127.996048 193.389755,124.577988 
	C192.502197,124.269012 191.653000,123.849800 190.652527,123.098038 
	C190.519043,122.714310 190.591629,122.737755 190.591629,122.737755 
	C189.444214,122.710129 188.296799,122.682503 187.370163,122.294273 
	C187.634476,121.706947 187.677994,121.480225 187.721527,121.253510 
	C187.323578,121.268051 186.925644,121.282593 186.527695,121.297134 
z"/>
<path fill="#000000" opacity="1.000000" stroke="none" 
	d="
M2058.778809,263.619904 
	C2020.056641,263.629089 1981.334473,263.638275 1942.153809,263.760986 
	C1941.695190,263.874512 1941.719360,263.835785 1941.418213,263.519287 
	C1940.729126,263.930511 1940.001465,264.658325 1940.001465,265.386047 
	C1940.003784,304.625671 1940.067017,343.865326 1940.124146,383.104950 
	C1941.787109,383.392303 1943.449829,383.929108 1945.113037,383.930695 
	C1992.432739,383.975739 2039.752563,383.966888 2087.072266,383.966858 
	C2088.879883,383.966858 2090.687500,383.966888 2093.022461,383.966888 
	C2093.022461,391.158081 2093.022461,398.093567 2092.857422,405.606873 
	C2092.692383,406.184662 2092.812500,406.571899 2092.812500,406.571899 
	C2034.911255,406.584381 1977.010132,406.596893 1918.707397,406.406555 
	C1918.305908,406.203705 1917.998901,405.997955 1917.998901,405.997955 
	C1917.998901,304.187164 1917.998901,202.376343 1917.998901,100.266266 
	C1973.939941,100.266266 2029.676025,100.266266 2085.706299,100.266266 
	C2085.706299,106.905502 2085.706299,113.652046 2085.706299,120.811417 
	C2037.410034,120.811417 1989.006470,120.811417 1940.319336,120.811417 
	C1940.319336,160.955017 1940.319336,200.690659 1940.319336,240.818787 
	C1979.655640,240.818787 2019.062622,240.818787 2059.030518,240.818787 
	C2059.030518,248.133240 2059.030518,255.068268 2058.860840,262.585999 
	C2058.691406,263.168701 2058.778809,263.619904 2058.778809,263.619904 
z"/>
<path fill="#010101" opacity="1.000000" stroke="none" 
	d="
M1388.864990,311.967987 
	C1388.572754,301.235016 1389.453125,290.294250 1387.600342,279.837830 
	C1386.231567,272.113007 1381.888794,264.677643 1377.841797,257.711182 
	C1367.289185,239.545837 1356.145508,221.724350 1345.284668,203.737305 
	C1332.683105,182.867432 1320.105225,161.983154 1307.569702,141.073654 
	C1301.302734,130.620407 1295.015015,120.174820 1289.032349,109.559196 
	C1287.185181,106.281555 1286.312988,102.454407 1284.715820,98.123528 
	C1292.177490,98.123528 1298.659668,97.727531 1305.049561,98.322876 
	C1307.526611,98.553665 1310.402100,100.536591 1312.043945,102.570595 
	C1316.938354,108.634048 1321.577881,114.946999 1325.794189,121.498886 
	C1328.603027,125.863678 1329.748657,131.433609 1332.972778,135.371948 
	C1344.097778,148.961395 1351.606934,164.756058 1360.815308,179.500702 
	C1363.735229,184.176376 1365.237671,189.729584 1368.096436,194.452942 
	C1372.534302,201.785126 1377.939453,208.539200 1382.263916,215.930649 
	C1386.596313,223.336136 1390.116089,231.217850 1393.971191,238.901291 
	C1395.111938,241.174667 1396.182129,243.483414 1397.880005,247.013992 
	C1400.517822,243.789764 1403.043213,241.344528 1404.810669,238.438354 
	C1415.883911,220.230347 1426.867432,201.966385 1437.727539,183.630249 
	C1450.219482,162.539062 1462.556641,141.356308 1474.952515,120.208275 
	C1478.024902,114.966614 1480.855835,109.569031 1484.182495,104.495346 
	C1486.924561,100.313110 1490.459961,97.517174 1496.239990,98.135544 
	C1501.966919,98.748245 1507.810791,98.269554 1513.552979,98.269554 
	C1514.923096,103.691811 1512.989746,107.637566 1509.855591,111.976089 
	C1505.427734,118.105492 1502.378906,125.217461 1498.572632,131.812515 
	C1492.090698,143.044189 1485.626587,154.291519 1478.848755,165.344437 
	C1476.054077,169.901901 1472.105591,173.752365 1469.314941,178.311783 
	C1463.317871,188.109924 1457.795898,198.197418 1451.956177,208.093674 
	C1447.672729,215.352478 1443.152344,222.471054 1438.811768,229.696671 
	C1434.155396,237.448105 1429.616333,245.269943 1424.968018,253.026321 
	C1421.611938,258.626556 1418.083374,264.124603 1414.793335,269.762634 
	C1413.625977,271.763000 1412.935669,274.041901 1411.766357,276.518005 
	C1411.505127,276.842346 1411.157471,276.935150 1410.709229,277.037933 
	C1410.150757,277.620911 1409.943726,278.101105 1409.943848,278.581268 
	C1409.958862,319.909058 1409.982056,361.236877 1410.060303,402.564575 
	C1410.062378,403.700378 1410.668579,404.835052 1410.928589,406.156311 
	C1410.864014,406.342407 1410.957886,406.725037 1410.957886,406.725037 
	C1403.965820,406.684509 1396.973877,406.643982 1389.505859,406.561737 
	C1389.030029,406.520020 1389.051392,406.562744 1389.007935,406.179932 
	C1388.931274,405.542358 1388.898193,405.287659 1388.950928,404.569153 
	C1388.979370,373.392883 1388.922119,342.680450 1388.864990,311.967987 
z"/>
<path fill="#18A4D6" opacity="1.000000" stroke="none" 
	d="
M489.149292,297.919861 
	C489.779327,299.035767 490.409393,300.151672 491.067139,301.606445 
	C491.915192,309.241882 486.665283,314.082886 483.520691,319.595154 
	C473.011230,338.017731 462.036713,356.176392 451.140442,374.376312 
	C446.758636,381.695221 443.669495,381.810669 439.587250,375.189819 
	C425.887268,352.970245 411.847626,330.960297 398.025482,308.815491 
	C396.648773,306.609833 395.869049,304.031525 394.849365,301.299744 
	C396.054016,299.355347 397.221588,297.737427 399.046234,296.416931 
	C401.516602,296.810394 403.329834,296.988800 405.143188,296.990051 
	C430.870056,297.007416 456.596954,296.977722 482.323669,297.039978 
	C484.599579,297.045471 486.874115,297.613220 489.149292,297.919861 
z"/>
<path fill="#7B7B7B" opacity="1.000000" stroke="none" 
	d="
M959.584839,405.725403 
	C959.949585,405.948303 960.328186,406.173706 960.282776,406.389282 
	C959.497375,406.356659 958.240417,406.256500 958.118652,405.831268 
	C957.809814,404.752655 958.006592,403.528290 958.006592,402.362274 
	C958.005554,302.915771 958.005127,203.469284 958.004700,104.022789 
	C958.004700,102.553207 958.004761,101.083633 958.004761,99.614052 
	C958.339722,99.614708 958.674744,99.615356 959.009705,99.616013 
	C959.009705,101.471893 959.009705,103.327766 959.009705,105.183647 
	C959.009583,203.464096 959.008240,301.744537 959.018066,400.024994 
	C959.018250,401.850830 959.149780,403.676666 959.584839,405.725403 
z"/>
<path fill="#121212" opacity="1.000000" stroke="none" 
	d="
M1192.400391,406.679321 
	C1191.985107,406.520386 1192.004883,406.566284 1192.335693,406.271118 
	C1192.771729,404.492035 1192.968506,403.008148 1192.968750,401.524261 
	C1192.983032,302.473022 1192.982910,203.421799 1192.968628,104.370583 
	C1192.968384,102.885284 1192.779175,101.400017 1192.678223,99.914734 
	C1193.109863,99.906105 1193.541504,99.897484 1193.973145,99.888863 
	C1193.986816,101.221031 1194.012817,102.553200 1194.012817,103.885368 
	C1194.014771,203.333954 1194.020142,302.782532 1193.964844,402.231079 
	C1193.963989,403.767029 1193.215332,405.302551 1192.400391,406.679321 
z"/>
<path fill="#D2D2D2" opacity="1.000000" stroke="none" 
	d="
M1916.067505,406.088409 
	C1916.045044,305.666931 1916.022461,205.245483 1916.000000,104.824013 
	C1915.999634,103.198181 1916.000000,101.572357 1917.020020,99.950195 
	C1917.020020,201.608383 1917.020020,303.266571 1916.791504,405.444580 
	C1916.397949,406.005737 1916.232666,406.047058 1916.067505,406.088409 
z"/>
<path fill="#A1A1A1" opacity="1.000000" stroke="none" 
	d="
M1605.954956,406.059052 
	C1605.954956,406.059052 1605.633301,406.311707 1605.431763,406.277588 
	C1605.153564,404.915924 1605.009888,403.588409 1605.009888,402.260895 
	C1605.008301,301.447845 1605.017822,200.634766 1605.065674,99.350220 
	C1605.104980,98.878723 1605.595947,98.973167 1605.818115,99.510239 
	C1606.036255,138.319794 1606.037964,176.592270 1606.026367,214.864746 
	C1606.006958,278.596191 1605.979248,342.327606 1605.954956,406.059052 
z"/>
<path fill="#C8C8C8" opacity="1.000000" stroke="none" 
	d="
M1192.490723,99.861908 
	C1192.779175,101.400017 1192.968384,102.885284 1192.968628,104.370583 
	C1192.982910,203.421799 1192.983032,302.473022 1192.968750,401.524261 
	C1192.968506,403.008148 1192.771729,404.492035 1192.310913,406.274597 
	C1191.969116,304.696442 1191.983032,202.819626 1191.985107,100.479050 
	C1191.973267,100.015289 1192.303467,99.809074 1192.490723,99.861908 
z"/>
<path fill="#E2E2E2" opacity="1.000000" stroke="none" 
	d="
M1167.984375,264.622955 
	C1168.153320,264.119415 1168.330322,264.074036 1168.857056,264.281616 
	C1169.363647,264.778198 1169.584717,264.924683 1169.870117,264.974030 
	C1169.931641,284.585510 1170.026367,304.196991 1170.046631,323.808502 
	C1170.074097,350.573578 1170.044922,377.338715 1169.748535,404.671936 
	C1169.239624,405.468170 1169.084351,405.732697 1168.800781,406.141632 
	C1168.610352,406.249664 1168.173096,406.271515 1168.173096,406.271515 
	C1168.115479,381.327332 1168.039185,356.383148 1168.005859,331.438934 
	C1167.976318,309.319702 1167.994751,287.200409 1167.984375,264.622955 
z"/>
<path fill="#D2D2D2" opacity="1.000000" stroke="none" 
	d="
M1728.965088,306.368774 
	C1729.710938,306.781952 1730.607300,307.470795 1731.091919,308.379242 
	C1740.207275,325.464142 1749.187744,342.621399 1758.376587,359.666443 
	C1766.424561,374.595612 1774.695190,389.404846 1782.986816,404.604095 
	C1781.732422,403.972412 1779.825073,403.307709 1779.071655,401.985504 
	C1774.242554,393.510803 1769.598755,384.927887 1765.022339,376.312439 
	C1756.015625,359.356659 1747.050659,342.378357 1738.156860,325.363190 
	C1734.948853,319.225769 1731.994141,312.956055 1728.965088,306.368774 
z"/>
<path fill="#E2E2E2" opacity="1.000000" stroke="none" 
	d="
M1388.625977,311.736389 
	C1388.922119,342.680450 1388.979370,373.392883 1388.752197,404.665192 
	C1388.252930,405.435852 1388.099609,405.684540 1387.800659,406.068970 
	C1387.593628,406.166779 1387.139282,406.223145 1387.139282,406.223145 
	C1387.139282,373.826935 1387.139282,341.430725 1387.139282,307.526886 
	C1387.853271,309.802948 1388.120239,310.653870 1388.625977,311.736389 
z"/>
<path fill="#020202" opacity="1.000000" stroke="none" 
	d="
M983.989197,102.350952 
	C983.989197,148.752380 983.989197,194.690628 983.989197,240.628891 
	C983.718567,240.628586 983.447998,240.628281 983.177368,240.627975 
	C983.177368,193.614731 983.177368,146.601486 983.177368,99.588249 
	C983.307800,99.563225 983.438293,99.538208 983.568726,99.513184 
	C983.708862,100.304718 983.849060,101.096260 983.989197,102.350952 
z"/>
<path fill="#666666" opacity="1.000000" stroke="none" 
	d="
M1166.993652,149.000000 
	C1166.993652,132.211487 1166.993652,115.922981 1166.993652,99.634476 
	C1167.233154,99.635170 1167.472656,99.635864 1167.712158,99.636559 
	C1167.712158,146.547775 1167.712158,193.458984 1167.712158,240.370209 
	C1167.472656,240.371948 1167.233154,240.373688 1166.993652,240.375427 
	C1166.993652,210.083618 1166.993652,179.791809 1166.993652,149.000000 
z"/>
<path fill="#222222" opacity="1.000000" stroke="none" 
	d="
M1411.397217,406.698883 
	C1410.957886,406.725037 1410.864014,406.342407 1410.900635,405.690369 
	C1411.010620,362.337250 1411.083984,319.636200 1411.157471,276.935150 
	C1411.157471,276.935150 1411.505127,276.842346 1411.673828,276.904785 
	C1411.907837,307.235138 1412.000854,337.502991 1412.025269,367.770905 
	C1412.035645,380.738129 1411.903687,393.705444 1411.397217,406.698883 
z"/>
<path fill="#222222" opacity="1.000000" stroke="none" 
	d="
M685.361572,281.960175 
	C685.361633,281.960175 685.555115,281.802979 685.664673,281.862488 
	C685.868958,283.408600 686.045898,284.895172 686.046509,286.381805 
	C686.061707,325.019012 686.072876,363.656219 686.005615,402.293304 
	C686.002930,403.818604 685.222595,405.342499 684.383179,406.710724 
	C683.961731,406.554382 683.990295,406.598236 684.322510,406.273376 
	C684.752563,404.133820 684.934998,402.319183 684.935791,400.504456 
	C684.951965,362.791656 684.941833,325.078827 684.964722,287.366028 
	C684.965820,285.564026 685.223389,283.762115 685.361572,281.960175 
z"/>
<path fill="#7B7B7B" opacity="1.000000" stroke="none" 
	d="
M1940.368896,383.063080 
	C1940.067017,343.865326 1940.003784,304.625671 1940.001465,265.386047 
	C1940.001465,264.658325 1940.729126,263.930511 1941.164062,263.945374 
	C1941.169800,304.083466 1941.128662,343.478943 1941.087646,382.874420 
	C1941.087646,382.874420 1940.613525,383.021210 1940.368896,383.063080 
z"/>
<path fill="#121212" opacity="1.000000" stroke="none" 
	d="
M1941.488525,382.714905 
	C1941.128662,343.478943 1941.169800,304.083466 1941.465088,264.261902 
	C1941.719360,263.835785 1941.695190,263.874512 1941.678223,263.889008 
	C1941.770752,264.384644 1941.975952,264.865814 1941.975708,265.346924 
	C1941.957397,304.416412 1941.922729,343.485870 1941.488525,382.714905 
z"/>
<path fill="#222222" opacity="1.000000" stroke="none" 
	d="
M1941.998901,169.000000 
	C1941.998901,192.791519 1941.998901,216.083038 1941.998901,239.374557 
	C1941.762817,239.374420 1941.526611,239.374283 1941.290527,239.374146 
	C1941.290527,200.459610 1941.290527,161.545074 1941.290527,122.630531 
	C1941.526611,122.627312 1941.762817,122.624092 1941.998901,122.620872 
	C1941.998901,137.913910 1941.998901,153.206955 1941.998901,169.000000 
z"/>
<path fill="#D2D2D2" opacity="1.000000" stroke="none" 
	d="
M1715.039185,280.299225 
	C1718.178101,285.205109 1721.397583,290.445831 1724.411987,295.801941 
	C1726.127197,298.849579 1727.507446,302.085724 1729.024048,305.615234 
	C1728.529785,305.932343 1727.737793,306.029480 1727.614990,305.787354 
	C1723.381958,297.438873 1719.212646,289.058258 1715.039185,280.299225 
z"/>
<path fill="#222222" opacity="1.000000" stroke="none" 
	d="
M1801.920166,385.652496 
	C1800.936523,385.225159 1799.669067,384.599243 1799.185181,383.595459 
	C1796.685791,378.409637 1794.386719,373.127106 1791.997070,367.509125 
	C1794.152344,370.734314 1796.413818,374.280548 1798.473267,377.940430 
	C1799.801514,380.300537 1800.833374,382.827423 1801.920166,385.652496 
z"/>
<path fill="#666666" opacity="1.000000" stroke="none" 
	d="
M2093.240234,406.766663 
	C2092.812500,406.571899 2092.692383,406.184662 2092.861572,406.073059 
	C2093.294189,400.588898 2093.586426,395.217529 2093.807129,389.843262 
	C2093.894287,387.725159 2093.821533,385.600464 2094.640625,383.470856 
	C2094.640625,391.292480 2094.641113,399.114136 2094.600586,406.935547 
	C2094.600586,406.945770 2093.991943,406.952850 2093.240234,406.766663 
z"/>
<path fill="#222222" opacity="1.000000" stroke="none" 
	d="
M1792.913818,154.644348 
	C1791.212158,150.996613 1789.609741,146.964417 1787.991821,142.535431 
	C1789.655273,146.179077 1791.334106,150.219482 1792.913818,154.644348 
z"/>
<path fill="#D2D2D2" opacity="1.000000" stroke="none" 
	d="
M1710.923706,273.799744 
	C1711.971802,274.703644 1713.003052,276.008331 1714.017090,277.656555 
	C1712.968872,276.733551 1711.937866,275.467041 1710.923706,273.799744 
z"/>
<path fill="#222222" opacity="1.000000" stroke="none" 
	d="
M1794.918335,163.678711 
	C1794.377930,163.117126 1793.935425,162.206009 1793.792969,161.132416 
	C1794.400879,161.756332 1794.708496,162.542755 1794.918335,163.678711 
z"/>
<path fill="#222222" opacity="1.000000" stroke="none" 
	d="
M1795.369629,201.943756 
	C1795.093506,201.343338 1795.145752,200.674744 1795.516479,199.989899 
	C1795.789185,200.607620 1795.743530,201.241608 1795.369629,201.943756 
z"/>
<path fill="#222222" opacity="1.000000" stroke="none" 
	d="
M1796.958984,192.683716 
	C1796.360718,192.782715 1795.847900,192.544708 1795.334961,192.306732 
	C1795.650024,191.900986 1795.965088,191.495255 1796.573730,191.034119 
	C1796.926514,191.434708 1796.985352,191.890701 1796.958984,192.683716 
z"/>
<path fill="#222222" opacity="1.000000" stroke="none" 
	d="
M1793.913818,158.708374 
	C1793.371338,158.425583 1792.928101,157.822357 1792.764648,157.102493 
	C1793.367065,157.453217 1793.689941,157.920578 1793.913818,158.708374 
z"/>
<path fill="#222222" opacity="1.000000" stroke="none" 
	d="
M1795.928711,169.705643 
	C1795.390503,169.424377 1794.945923,168.822708 1794.778564,168.101624 
	C1795.378052,168.449890 1795.700317,168.917572 1795.928711,169.705643 
z"/>
<path fill="#222222" opacity="1.000000" stroke="none" 
	d="
M1387.284058,406.463196 
	C1387.139282,406.223145 1387.593628,406.166779 1388.065918,406.209290 
	C1388.709229,406.355438 1388.880371,406.459076 1389.051392,406.562744 
	C1389.051392,406.562744 1389.030029,406.520020 1389.045776,406.499329 
	C1388.517334,406.553497 1387.973022,406.628387 1387.284058,406.463196 
z"/>
<path fill="#121212" opacity="1.000000" stroke="none" 
	d="
M1168.334839,406.486603 
	C1168.173096,406.271515 1168.610352,406.249664 1169.064819,406.280518 
	C1169.698608,406.397308 1169.878052,406.483185 1170.057373,406.569092 
	C1170.057373,406.569092 1170.041504,406.510284 1170.056641,406.483215 
	C1169.546753,406.537994 1169.021606,406.619843 1168.334839,406.486603 
z"/>
<path fill="#7B7B7B" opacity="1.000000" stroke="none" 
	d="
M2059.075195,263.794922 
	C2058.778809,263.619904 2058.691406,263.168701 2058.887695,263.049530 
	C2059.604004,263.156219 2060.124023,263.382050 2060.643799,263.607910 
	C2060.219727,263.728638 2059.795898,263.849304 2059.075195,263.794922 
z"/>
<path fill="#666666" opacity="1.000000" stroke="none" 
	d="
M1916.172119,406.413513 
	C1916.232666,406.047058 1916.397949,406.005737 1916.811035,405.902893 
	C1917.058838,405.841400 1917.518799,405.979645 1917.758789,405.988800 
	C1917.998901,405.997955 1918.305908,406.203705 1918.252686,406.380676 
	C1917.558594,406.617950 1916.917725,406.678253 1916.172119,406.413513 
z"/>
<path fill="#D2D2D2" opacity="1.000000" stroke="none" 
	d="
M1714.034424,278.234497 
	C1714.328735,278.152954 1714.657471,278.305908 1714.908447,278.742645 
	C1714.541504,278.888763 1714.287476,278.702942 1714.034424,278.234497 
z"/>
<path fill="#020202" opacity="1.000000" stroke="none" 
	d="
M188.030273,407.977997 
	C188.225510,408.165222 188.456299,408.325806 188.687088,408.486359 
	C188.372696,408.454254 188.058289,408.422150 187.943359,408.148438 
	C188.142807,407.906799 188.065826,407.951324 188.030273,407.977997 
z"/>
<path fill="#020202" opacity="1.000000" stroke="none" 
	d="
M1735.143311,102.097595 
	C1735.115479,101.873672 1735.028809,101.629097 1734.996704,101.377541 
	C1734.991699,101.338600 1735.237427,101.267685 1735.367188,101.211548 
	C1735.443481,101.429947 1735.519897,101.648338 1735.311523,101.942734 
	C1735.026978,102.018738 1735.102295,102.074669 1735.143311,102.097595 
z"/>
<path fill="#222222" opacity="1.000000" stroke="none" 
	d="
M660.924072,406.230042 
	C661.152283,406.323761 661.095154,406.285767 661.101685,406.251465 
	C660.970764,406.190216 660.833313,406.163269 660.924072,406.230042 
z"/>
<path fill="#010101" opacity="1.000000" stroke="none" 
	d="
M340.511902,405.702576 
	C340.475739,406.082184 340.475006,406.459961 340.474243,406.837708 
	C340.276428,406.534332 340.078644,406.230988 340.246887,405.800629 
	C340.612976,405.673645 340.547333,405.700684 340.511902,405.702576 
z"/>
<path fill="#020202" opacity="1.000000" stroke="none" 
	d="
M241.660355,362.661560 
	C241.924805,362.417419 242.205673,362.144012 242.486542,361.870605 
	C242.415833,362.163513 242.345108,362.456421 241.963303,362.659576 
	C241.652237,362.569824 241.676788,362.632294 241.660355,362.661560 
z"/>
<path fill="#010101" opacity="1.000000" stroke="none" 
	d="
M319.337494,399.236115 
	C319.106964,399.534607 318.857269,399.862854 318.607574,400.191101 
	C318.639709,399.882141 318.671844,399.573212 319.039490,399.280029 
	C319.375000,399.295807 319.318298,399.265869 319.337494,399.236115 
z"/>
<path fill="#020202" opacity="1.000000" stroke="none" 
	d="
M109.465561,403.693695 
	C109.645821,403.978485 109.860390,404.276581 110.074966,404.574646 
	C109.805046,404.467651 109.535126,404.360657 109.418221,403.989227 
	C109.571236,403.724823 109.499863,403.707001 109.465561,403.693695 
z"/>
<path fill="#020202" opacity="1.000000" stroke="none" 
	d="
M134.933914,122.936348 
	C134.526062,123.109337 134.158936,123.331055 133.924194,123.256165 
	C134.056564,122.959557 133.997009,123.002098 134.247162,123.009514 
	C134.681839,123.040184 134.866379,123.063438 135.050919,123.086685 
	C135.050919,123.086685 134.974655,122.985077 134.933914,122.936348 
z"/>
<path fill="#020202" opacity="1.000000" stroke="none" 
	d="
M190.483368,122.700867 
	C190.654327,122.986824 190.860947,123.286240 191.067581,123.585648 
	C190.801666,123.473648 190.535767,123.361656 190.430740,122.993706 
	C190.591629,122.737755 190.519043,122.714310 190.483368,122.700867 
z"/>
<path fill="#010101" opacity="1.000000" stroke="none" 
	d="
M805.628174,106.531601 
	C805.906189,106.310326 806.304504,106.271202 806.702881,106.232086 
	C806.664124,106.461090 806.625427,106.690094 806.314087,106.978371 
	C806.041443,107.037636 805.748596,106.713753 805.628174,106.531601 
z"/>
<path fill="#020202" opacity="1.000000" stroke="none" 
	d="
M1745.079346,105.055771 
	C1745.081543,104.825569 1745.031616,104.573830 1745.036255,104.323074 
	C1745.036865,104.285286 1745.290894,104.252037 1745.427734,104.216660 
	C1745.478149,104.443916 1745.528687,104.671196 1745.280640,104.941444 
	C1744.982178,104.984413 1745.045166,105.034554 1745.079346,105.055771 
z"/>
<path fill="#020202" opacity="1.000000" stroke="none" 
	d="
M96.663055,158.703064 
	C96.911743,158.434509 97.178314,158.137054 97.444885,157.839584 
	C97.392258,158.137238 97.339630,158.434906 96.965103,158.675110 
	C96.643196,158.617645 96.680923,158.674164 96.663055,158.703064 
z"/>
<path fill="#222222" opacity="1.000000" stroke="none" 
	d="
M1794.287109,206.984955 
	C1793.992920,206.655487 1794.140259,206.397903 1794.642578,206.110168 
	C1794.753052,206.317017 1794.663330,206.642624 1794.287109,206.984955 
z"/>
<path fill="#222222" opacity="1.000000" stroke="none" 
	d="
M1793.318237,212.028961 
	C1793.047607,211.740524 1793.193237,211.470703 1793.665039,211.133118 
	C1793.770630,211.319931 1793.685059,211.647339 1793.318237,212.028961 
z"/>
<path fill="#222222" opacity="1.000000" stroke="none" 
	d="
M1792.299805,215.003632 
	C1792.011719,214.690903 1792.157104,214.427551 1792.648315,214.119019 
	C1792.758545,214.318161 1792.671631,214.644562 1792.299805,215.003632 
z"/>
<path fill="#222222" opacity="1.000000" stroke="none" 
	d="
M1791.267212,217.954224 
	C1790.964355,217.596130 1791.112427,217.347549 1791.627197,217.093353 
	C1791.739624,217.316315 1791.647705,217.641663 1791.267212,217.954224 
z"/>
<path fill="#222222" opacity="1.000000" stroke="none" 
	d="
M1790.286865,220.983719 
	C1789.987183,220.653503 1790.131348,220.395142 1790.633301,220.107849 
	C1790.747437,220.316818 1790.660645,220.642365 1790.286865,220.983719 
z"/>
<path fill="#222222" opacity="1.000000" stroke="none" 
	d="
M1789.325195,224.038345 
	C1789.054443,223.757065 1789.197754,223.483856 1789.666016,223.137253 
	C1789.772217,223.320602 1789.688232,223.648117 1789.325195,224.038345 
z"/>
<path fill="#222222" opacity="1.000000" stroke="none" 
	d="
M1788.297607,225.999634 
	C1788.003418,225.683456 1788.146973,225.420288 1788.641479,225.115921 
	C1788.754272,225.317581 1788.668579,225.643570 1788.297607,225.999634 
z"/>
<path fill="#222222" opacity="1.000000" stroke="none" 
	d="
M1787.269775,227.911392 
	C1787.107544,227.613541 1787.270020,227.393768 1787.648926,227.097015 
	C1787.734253,227.313004 1787.644043,227.636154 1787.269775,227.911392 
z"/>
<path fill="#FFFFFF" opacity="1.000000" stroke="none" 
	d="
M1729.098022,125.702293 
	C1731.486572,127.029427 1733.861572,128.381790 1736.270142,129.671570 
	C1737.255981,130.199570 1738.285645,130.898758 1739.344238,130.997757 
	C1746.962402,131.710068 1750.845337,137.749069 1755.879639,142.987518 
	C1756.656860,144.109940 1757.316772,144.562973 1757.976685,145.016022 
	C1757.976685,145.016006 1758.000000,145.000000 1757.892212,145.380051 
	C1761.339111,153.369797 1764.882690,160.984802 1768.489502,168.569672 
	C1768.633057,168.871506 1769.379150,168.886887 1769.844482,169.035736 
	C1769.570312,171.366776 1768.949097,173.724701 1769.126831,176.020752 
	C1769.281860,178.023438 1770.773560,179.927597 1770.905396,181.926010 
	C1771.188843,186.226471 1771.149414,190.571655 1770.848389,194.870941 
	C1770.772095,195.962036 1769.217529,196.949585 1768.942383,198.052002 
	C1767.969360,201.015808 1766.693848,203.918365 1766.078979,206.954712 
	C1764.081055,216.823074 1757.906616,224.367722 1751.870850,231.768356 
	C1747.135864,237.574112 1741.758789,243.199158 1733.815430,244.942993 
	C1731.736816,245.399292 1729.673218,245.923965 1727.690918,246.804794 
	C1727.779907,246.883682 1727.780762,246.574997 1727.781494,246.266296 
	C1727.570312,246.622406 1727.359131,246.978531 1727.147949,247.334671 
	C1695.330566,251.070663 1663.385620,249.667404 1631.217529,250.069946 
	C1631.217529,207.637527 1631.217529,165.564804 1631.217529,122.422691 
	C1661.715210,121.715096 1692.251587,121.482796 1722.610718,123.712112 
	C1722.492554,124.346733 1722.556030,124.565987 1722.619507,124.785248 
	C1722.750488,124.739594 1722.995850,124.687332 1722.993652,124.649368 
	C1722.979492,124.400711 1722.911499,124.155159 1722.861084,123.908585 
	C1725.009766,124.287079 1727.158569,124.665565 1729.355957,125.634613 
	C1729.619385,126.289871 1729.834106,126.354591 1730.048828,126.419312 
	C1729.731934,126.180313 1729.414917,125.941307 1729.098022,125.702293 
z"/>
<path fill="#FEFEFE" opacity="1.000000" stroke="none" 
	d="
M1606.391113,405.942322 
	C1605.979248,342.327606 1606.006958,278.596191 1606.026367,214.864746 
	C1606.037964,176.592270 1606.036255,138.319794 1606.056030,99.587074 
	C1606.375366,100.272499 1606.944702,101.418045 1606.945068,102.563828 
	C1606.985718,202.988800 1606.982666,303.413788 1606.975708,403.838776 
	C1606.975708,404.501038 1606.878906,405.163330 1606.391113,405.942322 
z"/>
<path fill="#C8C8C8" opacity="1.000000" stroke="none" 
	d="
M1630.049561,141.000717 
	C1630.049561,177.449127 1630.049561,213.397705 1630.049561,249.346268 
	C1629.810669,249.346207 1629.571655,249.346130 1629.332764,249.346069 
	C1629.332764,207.097549 1629.332764,164.849030 1629.332764,122.600517 
	C1629.571655,122.593399 1629.810669,122.586281 1630.049561,122.579163 
	C1630.049561,128.553070 1630.049561,134.526978 1630.049561,141.000717 
z"/>
<path fill="#D2D2D2" opacity="1.000000" stroke="none" 
	d="
M1769.942139,168.650223 
	C1769.379150,168.886887 1768.633057,168.871506 1768.489502,168.569672 
	C1764.882690,160.984802 1761.339111,153.369797 1757.884155,145.391693 
	C1764.354858,150.239624 1766.278564,157.906128 1769.034668,165.110275 
	C1769.428223,166.139328 1769.707520,167.212158 1769.942139,168.650223 
z"/>
<path fill="#222222" opacity="1.000000" stroke="none" 
	d="
M1795.294067,181.180145 
	C1795.314575,180.613892 1795.515137,180.230347 1795.715820,179.846802 
	C1795.635254,180.352158 1795.554810,180.857513 1795.294067,181.180145 
z"/>
<path fill="#D2D2D2" opacity="1.000000" stroke="none" 
	d="
M1757.966309,144.705765 
	C1757.316772,144.562973 1756.656860,144.109940 1756.018433,143.290405 
	C1756.678589,143.414444 1757.317383,143.904968 1757.966309,144.705765 
z"/>
<path fill="#FEFEFE" opacity="1.000000" stroke="none" 
	d="
M1170.014160,406.184265 
	C1169.878052,406.483185 1169.698608,406.397308 1169.255249,406.172485 
	C1169.084351,405.732697 1169.239624,405.468170 1169.663452,405.135742 
	C1169.903687,405.287445 1169.937378,405.543427 1170.014160,406.184265 
z"/>
<path fill="#FEFEFE" opacity="1.000000" stroke="none" 
	d="
M1169.901367,264.711578 
	C1169.584717,264.924683 1169.363647,264.778198 1169.122559,264.349152 
	C1169.336304,264.258881 1169.634399,264.354004 1169.901367,264.711578 
z"/>
<path fill="#FEFEFE" opacity="1.000000" stroke="none" 
	d="
M401.660889,254.401352 
	C402.606964,250.255035 403.289459,246.025269 404.568573,241.984344 
	C406.031372,237.363144 407.942719,232.875687 409.812988,228.394302 
	C411.345337,224.722565 413.248077,221.202759 414.721588,217.509842 
	C416.296417,213.562820 417.667908,209.525101 418.926361,205.464462 
	C419.933960,202.213196 420.639374,198.868332 421.754974,195.262024 
	C422.031036,194.959045 421.983643,195.018509 421.983643,195.018509 
	C423.307922,192.449677 424.897339,189.981079 425.912781,187.295471 
	C431.820160,171.672028 437.592743,155.997604 443.464264,140.196732 
	C452.502258,153.478165 455.824615,169.093918 461.242371,183.812958 
	C470.171661,208.072220 478.690033,232.482834 487.347565,256.841736 
	C487.716156,257.878784 487.742706,259.037384 487.570740,260.374390 
	C485.769897,259.389587 483.721954,258.452942 482.994232,256.898315 
	C480.545593,251.667252 476.398560,249.979019 471.039124,249.988083 
	C452.444183,250.019501 433.848480,250.089935 415.254639,249.941727 
	C410.108215,249.900711 405.622192,251.174545 401.660889,254.401352 
z"/>
<path fill="#18A4D5" opacity="1.000000" stroke="none" 
	d="
M401.321350,254.586121 
	C405.622192,251.174545 410.108215,249.900711 415.254639,249.941727 
	C433.848480,250.089935 452.444183,250.019501 471.039124,249.988083 
	C476.398560,249.979019 480.545593,251.667252 482.994232,256.898315 
	C483.721954,258.452942 485.769897,259.389587 487.506531,260.779663 
	C490.893433,266.663879 494.093414,272.323364 497.048035,278.108154 
	C499.659607,283.221375 497.779327,285.845947 491.858978,285.779144 
	C486.533417,285.719025 481.207001,285.689667 475.881134,285.705688 
	C448.915100,285.786713 421.949158,285.883026 394.983215,285.985626 
	C391.659180,285.998260 388.150879,281.126343 389.657532,277.830048 
	C393.215973,270.044800 397.181122,262.445435 401.321350,254.586121 
z"/>
<path fill="#18A4D5" opacity="1.000000" stroke="none" 
	d="
M489.091431,297.478271 
	C486.874115,297.613220 484.599579,297.045471 482.323669,297.039978 
	C456.596954,296.977722 430.870056,297.007416 405.143188,296.990051 
	C403.329834,296.988800 401.516602,296.810394 399.386353,296.459808 
	C427.963562,296.054535 456.857697,295.889618 485.752075,295.808075 
	C486.844727,295.804962 487.939667,296.608856 489.091431,297.478271 
z"/>
<path fill="#FEFEFE" opacity="1.000000" stroke="none" 
	d="
M422.051025,194.926727 
	C421.828766,194.923859 421.586090,194.970490 421.344727,194.964462 
	C421.308136,194.963562 421.277618,194.718140 421.244293,194.585815 
	C421.463379,194.537674 421.682495,194.489517 421.942627,194.729950 
	C421.983643,195.018509 422.031036,194.959045 422.051025,194.926727 
z"/>
<path fill="#FEFEFE" opacity="1.000000" stroke="none" 
	d="
M787.031799,126.028656 
	C792.253845,128.122086 797.681396,129.829178 802.619629,132.456131 
	C805.509155,133.993240 807.535950,137.093384 810.110352,139.304749 
	C811.519714,140.515396 813.461060,141.122421 814.819702,142.373810 
	C823.577637,150.440002 828.260559,160.876770 830.850220,172.163330 
	C832.297852,178.472473 833.003418,185.122910 832.855286,191.592361 
	C832.524902,206.025146 828.537598,219.643463 820.513916,231.692276 
	C817.923767,235.581848 813.154358,237.951279 810.069275,241.597717 
	C806.257507,246.103088 801.386292,248.890854 796.473450,251.741531 
	C795.415527,252.355377 794.138977,252.653015 792.924744,252.923843 
	C790.633423,253.434906 788.275818,253.679886 786.016785,254.295959 
	C783.480469,254.987671 781.057495,256.561096 778.524170,256.709656 
	C771.241882,257.136841 763.927307,256.979065 756.628052,257.157990 
	C734.661011,257.696564 712.695251,258.288666 690.728760,258.849854 
	C689.073853,258.892151 687.416992,258.855377 685.842896,258.855377 
	C685.842896,213.589630 685.842896,168.561646 685.842896,123.701157 
	C693.510620,119.556465 701.469849,121.224052 709.194885,121.121986 
	C722.688416,120.943703 736.186401,121.136719 749.681335,121.027718 
	C758.268799,120.958359 766.726501,121.541946 775.071960,123.814468 
	C778.534363,124.757301 782.222107,124.872559 786.276184,125.544189 
	C786.744995,125.724220 787.031799,126.028648 787.031799,126.028656 
z"/>
<path fill="#E2E2E2" opacity="1.000000" stroke="none" 
	d="
M685.140869,281.601562 
	C685.223389,283.762115 684.965820,285.564026 684.964722,287.366028 
	C684.941833,325.078827 684.951965,362.791656 684.935791,400.504456 
	C684.934998,402.319183 684.752563,404.133820 684.306030,406.258087 
	C683.968567,366.412231 683.968933,326.256775 684.030151,286.101440 
	C684.032593,284.481476 684.610352,282.862396 685.140869,281.601562 
z"/>
<path fill="#FEFEFE" opacity="1.000000" stroke="none" 
	d="
M786.622559,125.554688 
	C786.897278,125.332634 787.294495,125.280098 787.691711,125.227562 
	C787.654907,125.457649 787.618103,125.687737 787.306519,125.973236 
	C787.031799,126.028648 786.744995,125.724220 786.622559,125.554688 
z"/>
<path fill="#FFFFFF" opacity="1.000000" stroke="none" 
	d="
M805.117676,273.877197 
	C804.729431,273.785278 804.484314,273.546692 804.239136,273.308167 
	C804.504456,273.242401 804.769836,273.176636 805.273926,273.259216 
	C805.512695,273.407532 805.260681,273.730560 805.117676,273.877197 
z"/>
<path fill="#FFFFFF" opacity="1.000000" stroke="none" 
	d="
M135.180603,122.775200 
	C134.866379,123.063438 134.681839,123.040184 134.218658,123.032471 
	C134.396774,122.853241 134.853531,122.658478 135.180603,122.775200 
z"/>
<path fill="#FFFFFF" opacity="1.000000" stroke="none" 
	d="
M186.640747,121.496078 
	C186.925644,121.282593 187.323578,121.268051 187.721527,121.253510 
	C187.677994,121.480225 187.634476,121.706947 187.319992,121.989166 
	C187.049042,122.044670 186.753784,121.695015 186.640747,121.496078 
z"/>
<path fill="#FFFFFF" opacity="1.000000" stroke="none" 
	d="
M95.540146,162.371674 
	C95.321991,162.097260 95.282997,161.701019 95.244003,161.304749 
	C95.473816,161.340714 95.703636,161.376678 95.986221,161.684967 
	C96.038979,161.957321 95.719307,162.249847 95.540146,162.371674 
z"/>
<path fill="#C8C8C8" opacity="1.000000" stroke="none" 
	d="
M1410.709229,277.037933 
	C1411.083984,319.636200 1411.010620,362.337250 1410.965210,405.504272 
	C1410.668579,404.835052 1410.062378,403.700378 1410.060303,402.564575 
	C1409.982056,361.236877 1409.958862,319.909058 1409.943848,278.581268 
	C1409.943726,278.101105 1410.150757,277.620911 1410.709229,277.037933 
z"/>
<path fill="#FFFFFF" opacity="1.000000" stroke="none" 
	d="
M1389.007935,406.179932 
	C1388.880371,406.459076 1388.709229,406.355438 1388.272949,406.111450 
	C1388.099609,405.684540 1388.252930,405.435852 1388.666504,405.128998 
	C1388.898193,405.287659 1388.931274,405.542358 1389.007935,406.179932 
z"/>
<path fill="#020202" opacity="1.000000" stroke="none" 
	d="
M1722.899414,123.930984 
	C1722.911499,124.155159 1722.979492,124.400711 1722.993652,124.649368 
	C1722.995850,124.687332 1722.750488,124.739594 1722.619507,124.785248 
	C1722.556030,124.565987 1722.492554,124.346733 1722.718750,124.067337 
	C1723.008301,124.007195 1722.937744,123.953377 1722.899414,123.930984 
z"/>
<path fill="#020202" opacity="1.000000" stroke="none" 
	d="
M1729.145996,125.719376 
	C1729.414917,125.941307 1729.731934,126.180313 1730.048828,126.419312 
	C1729.834106,126.354591 1729.619385,126.289871 1729.266357,125.952110 
	C1729.128052,125.679062 1729.193970,125.736450 1729.145996,125.719376 
z"/>
<path fill="#020202" opacity="1.000000" stroke="none" 
	d="
M1727.169189,247.301422 
	C1727.359131,246.978531 1727.570312,246.622406 1727.781494,246.266296 
	C1727.780762,246.574997 1727.779907,246.883682 1727.440918,247.248016 
	C1727.102539,247.303650 1727.190552,247.268173 1727.169189,247.301422 
z"/>
</svg>